<svg width="245" height="245" viewBox="0 0 245 245" fill="none" xmlns="http://www.w3.org/2000/svg">
<path d="M230.132 3.05176e-05C238.186 3.05176e-05 244.76 6.53474 244.28 14.5742C242.66 41.727 236.522 68.455 226.087 93.6483C213.789 123.339 195.763 150.316 173.039 173.04C150.316 195.763 123.338 213.789 93.6483 226.087C68.455 236.522 41.727 242.661 14.5742 244.28C6.53472 244.76 0 238.186 0 230.132V179.474C0 171.42 6.54148 164.958 14.5638 164.247C31.2257 162.77 47.5949 158.763 63.1012 152.34C83.1067 144.053 101.284 131.907 116.596 116.596C131.907 101.284 144.053 83.1068 152.34 63.1012C158.763 47.5949 162.769 31.2258 164.247 14.5638C164.958 6.54152 171.42 3.05176e-05 179.474 3.05176e-05H230.132Z" fill="#B57BFF"/>
<path d="M230.132 3.05176e-05C238.186 3.05176e-05 244.76 6.53474 244.28 14.5742C242.66 41.727 236.522 68.455 226.087 93.6483C213.789 123.339 195.763 150.316 173.039 173.04C150.316 195.763 123.338 213.789 93.6483 226.087C68.455 236.522 41.727 242.661 14.5742 244.28C6.53472 244.76 0 238.186 0 230.132V179.474C0 171.42 6.54148 164.958 14.5638 164.247C31.2257 162.77 47.5949 158.763 63.1012 152.34C83.1067 144.053 101.284 131.907 116.596 116.596C131.907 101.284 144.053 83.1068 152.34 63.1012C158.763 47.5949 162.769 31.2258 164.247 14.5638C164.958 6.54152 171.42 3.05176e-05 179.474 3.05176e-05H230.132Z" fill="white" fill-opacity="0.5"/>
</svg>
