<svg width="155" height="155" viewBox="0 0 155 155" fill="none" xmlns="http://www.w3.org/2000/svg">
<path d="M0 16C0 7.16345 7.18225 -0.0854747 15.9718 0.825081C30.8464 2.36602 45.4482 6.05449 59.3159 11.7987C78.1214 19.5882 95.2085 31.0054 109.602 45.3984C123.995 59.7915 135.412 76.8786 143.201 95.6841C148.946 109.552 152.634 124.154 154.175 139.028C155.085 147.818 147.837 155 139 155L16 155C7.16345 155 0 147.837 0 139V16Z" fill="#3E66FB"/>
<path d="M0 16C0 7.16345 7.18225 -0.0854747 15.9718 0.825081C30.8464 2.36602 45.4482 6.05449 59.3159 11.7987C78.1214 19.5882 95.2085 31.0054 109.602 45.3984C123.995 59.7915 135.412 76.8786 143.201 95.6841C148.946 109.552 152.634 124.154 154.175 139.028C155.085 147.818 147.837 155 139 155L16 155C7.16345 155 0 147.837 0 139V16Z" fill="#3e66fb" fill-opacity="1"/>
</svg>
