<svg width="324" height="262" viewBox="0 0 324 262" fill="none" xmlns="http://www.w3.org/2000/svg">
<g clip-path="url(#clip0_2_126)">
<path opacity="0.1" d="M53.9874 205.887C83.8039 205.887 107.975 202.14 107.975 197.519C107.975 192.897 83.8039 189.151 53.9874 189.151C24.171 189.151 0 192.897 0 197.519C0 202.14 24.171 205.887 53.9874 205.887Z" fill="#F03738"/>
<path opacity="0.1" d="M79.936 245.753C91.5332 245.753 100.935 243.811 100.935 241.415C100.935 239.019 91.5332 237.077 79.936 237.077C68.3388 237.077 58.9374 239.019 58.9374 241.415C58.9374 243.811 68.3388 245.753 79.936 245.753Z" fill="#F03738"/>
<path opacity="0.1" d="M223.42 229.064C235.017 229.064 244.419 227.122 244.419 224.726C244.419 222.33 235.017 220.388 223.42 220.388C211.823 220.388 202.422 222.33 202.422 224.726C202.422 227.122 211.823 229.064 223.42 229.064Z" fill="#F03738"/>
<path opacity="0.1" d="M152.166 225.423C171.025 225.423 186.313 222.833 186.313 219.638C186.313 216.443 171.025 213.853 152.166 213.853C133.307 213.853 118.019 216.443 118.019 219.638C118.019 222.833 133.307 225.423 152.166 225.423Z" fill="#F03738"/>
<path opacity="0.1" d="M252.78 202.159C292.116 202.159 324.003 197.164 324.003 191.003C324.003 184.843 292.116 179.848 252.78 179.848C213.445 179.848 181.558 184.843 181.558 191.003C181.558 197.164 213.445 202.159 252.78 202.159Z" fill="#F03738"/>
<path d="M14.7618 171.533C13.1619 174.645 12.4147 178.126 12.5961 181.62C12.7775 185.115 13.881 188.5 15.7945 191.43C16.4222 192.371 16.9998 193.049 17.4612 193.228C19.674 194.098 24.106 196.235 24.106 196.235L34.778 192.042C34.778 192.042 36.5106 182.876 38.149 175.007C39.2665 169.64 40.3462 164.879 40.7888 164.044C41.8936 161.988 40.7888 139.605 40.7888 139.605C40.7888 139.605 30.1168 138.889 27.1821 147.116L25.8983 149.627L14.7618 171.533Z" fill="#A8A8A8"/>
<path opacity="0.1" d="M28.9304 174.007C35.4183 181.442 38.1553 175.011 38.1553 175.011C39.2727 169.644 40.3525 164.882 40.7951 164.047C41.8999 161.991 40.7951 139.608 40.7951 139.608C40.7951 139.608 30.1231 138.893 27.1883 147.12L25.9046 149.631C25.0822 156.213 24.2692 168.655 28.9304 174.007Z" fill="white"/>
<path d="M30.3553 194.732L68.021 190.381L74.7412 146.162L69.6595 134.677C67.5125 129.786 64.5396 125.301 60.8708 121.419C58.3127 118.722 55.221 116.13 51.9692 114.827C51.5248 114.648 51.0711 114.493 50.6101 114.363C50.0801 114.202 49.5196 114.168 48.9741 114.265C48.4287 114.361 47.9138 114.585 47.4713 114.918C42.8258 118.211 41.1654 132.21 40.6287 138.949C40.4078 141.718 40.0337 144.473 39.5081 147.201L30.3553 194.732Z" fill="#A8A8A8"/>
<path opacity="0.1" d="M55.4312 145.684L47.5842 164.988C51.6961 161.981 57.7885 145.606 57.7885 145.606L63.2469 164.275L58.8965 144.598C59.5333 140.325 59.7185 135.997 59.4489 131.685C59.1036 126.745 54.4676 118.816 51.9503 114.824C51.5059 114.645 51.0522 114.489 50.5912 114.359C50.0612 114.198 49.5007 114.164 48.9553 114.261C48.4099 114.358 47.8949 114.582 47.4524 114.915C49.4298 118.885 54.3735 128.813 55.8801 131.764C57.7916 135.48 55.4312 145.684 55.4312 145.684Z" fill="white"/>
<path d="M61.8376 196.235H82.2744C83.1151 196.235 83.947 196.065 84.7196 195.733C85.4922 195.402 86.1893 194.917 86.7686 194.308C87.3478 193.698 87.7971 192.978 88.0892 192.189C88.3812 191.401 88.5098 190.562 88.4673 189.722C88.0153 180.959 86.8696 165.334 84.1451 155.415C82.673 150.063 80.9624 147.254 79.393 145.87C78.657 145.16 77.7069 144.713 76.6905 144.599C75.9195 144.532 75.1479 144.719 74.4933 145.132C70.6985 148.77 66.2665 167.914 66.2665 167.914L61.8376 196.235Z" fill="#A8A8A8"/>
<path opacity="0.1" d="M80.705 179.258C81.5462 181.59 81.8789 184.28 80.705 186.901L76.1506 189.151C76.1506 189.151 63.9092 183.963 65.397 173.328C65.397 173.328 65.7988 171.131 70.0142 171.301C72.3849 171.415 74.6678 172.233 76.5718 173.65C78.4758 175.067 79.9147 177.019 80.705 179.258Z" fill="white"/>
<path opacity="0.1" d="M75.8398 151.303C75.6985 147.574 77.7231 146.281 79.396 145.87C78.6601 145.159 77.7099 144.712 76.6935 144.598C75.529 145.573 74.7037 146.892 74.3363 148.365L70.0675 169.172C70.0675 169.172 76.0783 157.552 75.8398 151.303Z" fill="white"/>
<path d="M56.4608 167.757L66.5803 181.599L68.3349 193.024L61.8313 196.235L52.4557 198.307C51.5527 198.507 50.6243 198.567 49.7029 198.485L24.1185 196.235L27.5995 188.165L39.6211 171.288L56.4608 167.757Z" fill="#A8A8A8"/>
<path opacity="0.1" d="M52.5435 163.005C52.5435 163.005 59.4489 163.479 56.8563 175.344C54.2636 187.208 27.5869 188.159 27.5869 188.159C27.5869 188.159 33.2556 178.115 41.9752 170.918C42.9545 170.111 43.8993 169.27 44.8001 168.372C46.8058 166.367 50.6414 162.842 52.5435 163.005Z" fill="white"/>
<path opacity="0.1" d="M58.7552 171.95C58.7552 171.95 68.112 180.465 67.23 193.57L58.7552 171.95Z" fill="black"/>
<path opacity="0.1" d="M74.4964 145.133C74.4964 145.133 64.6783 158.19 63.5765 178.282L74.4964 145.133Z" fill="black"/>
<path opacity="0.1" d="M40.7982 139.599C40.7982 139.599 45.5504 161.178 33.6857 177.443L40.7982 139.599Z" fill="black"/>
<path d="M127.351 219.519H178.557C179.052 219.516 179.538 219.386 179.968 219.14C180.397 218.894 180.756 218.541 181.008 218.115C181.261 217.69 181.399 217.206 181.41 216.711C181.42 216.216 181.303 215.727 181.068 215.291L155.478 167.744C155.232 167.289 154.868 166.908 154.424 166.642C153.979 166.377 153.472 166.237 152.954 166.237C152.436 166.237 151.928 166.377 151.484 166.642C151.04 166.908 150.676 167.289 150.43 167.744L124.827 215.291C124.592 215.728 124.474 216.218 124.485 216.714C124.497 217.21 124.636 217.695 124.89 218.121C125.144 218.546 125.505 218.899 125.936 219.144C126.367 219.389 126.855 219.519 127.351 219.519ZM156.212 210.831H149.696V204.318H156.212V210.831ZM156.212 199.974H149.696V186.945H156.212V199.974Z" fill="#F03738"/>
<path d="M127.351 219.519H178.557C179.052 219.516 179.538 219.386 179.968 219.14C180.397 218.894 180.756 218.541 181.008 218.115C181.261 217.69 181.399 217.206 181.41 216.711C181.42 216.216 181.303 215.727 181.068 215.291L155.478 167.744C155.232 167.289 154.868 166.908 154.424 166.642C153.979 166.377 153.472 166.237 152.954 166.237C152.436 166.237 151.928 166.377 151.484 166.642C151.04 166.908 150.676 167.289 150.43 167.744L124.827 215.291C124.592 215.728 124.474 216.218 124.485 216.714C124.497 217.21 124.636 217.695 124.89 218.121C125.144 218.546 125.505 218.899 125.936 219.144C126.367 219.389 126.855 219.519 127.351 219.519ZM156.212 210.831H149.696V204.318H156.212V210.831ZM156.212 199.974H149.696V186.945H156.212V199.974Z" fill="white" fill-opacity="0.5"/>
<g opacity="0.1">
<path d="M127.351 219.519H178.557C179.052 219.516 179.538 219.386 179.968 219.14C180.397 218.894 180.756 218.541 181.008 218.115C181.261 217.69 181.399 217.206 181.41 216.711C181.42 216.216 181.303 215.727 181.068 215.291L155.478 167.744C155.232 167.289 154.868 166.908 154.424 166.642C153.979 166.377 153.472 166.237 152.954 166.237C152.436 166.237 151.928 166.377 151.484 166.642C151.04 166.908 150.676 167.289 150.43 167.744L124.827 215.291C124.592 215.728 124.474 216.218 124.485 216.714C124.497 217.21 124.636 217.695 124.89 218.121C125.144 218.546 125.505 218.899 125.936 219.144C126.367 219.389 126.855 219.519 127.351 219.519ZM156.212 210.831H149.696V204.318H156.212V210.831ZM156.212 199.974H149.696V186.945H156.212V199.974Z" fill="#F03738"/>
<path d="M127.351 219.519H178.557C179.052 219.516 179.538 219.386 179.968 219.14C180.397 218.894 180.756 218.541 181.008 218.115C181.261 217.69 181.399 217.206 181.41 216.711C181.42 216.216 181.303 215.727 181.068 215.291L155.478 167.744C155.232 167.289 154.868 166.908 154.424 166.642C153.979 166.377 153.472 166.237 152.954 166.237C152.436 166.237 151.928 166.377 151.484 166.642C151.04 166.908 150.676 167.289 150.43 167.744L124.827 215.291C124.592 215.728 124.474 216.218 124.485 216.714C124.497 217.21 124.636 217.695 124.89 218.121C125.144 218.546 125.505 218.899 125.936 219.144C126.367 219.389 126.855 219.519 127.351 219.519ZM156.212 210.831H149.696V204.318H156.212V210.831ZM156.212 199.974H149.696V186.945H156.212V199.974Z" fill="white" fill-opacity="0.5"/>
</g>
<path d="M127.351 221.088H178.557C179.052 221.085 179.538 220.955 179.968 220.709C180.397 220.463 180.756 220.11 181.008 219.684C181.261 219.259 181.399 218.775 181.41 218.28C181.42 217.785 181.303 217.296 181.068 216.86L155.478 169.313C155.232 168.858 154.868 168.477 154.424 168.211C153.979 167.946 153.472 167.806 152.954 167.806C152.436 167.806 151.928 167.946 151.484 168.211C151.04 168.477 150.676 168.858 150.43 169.313L124.827 216.86C124.592 217.297 124.474 217.787 124.485 218.283C124.497 218.779 124.636 219.264 124.89 219.69C125.144 220.115 125.505 220.468 125.936 220.713C126.367 220.958 126.855 221.087 127.351 221.088ZM156.212 212.4H149.696V205.887H156.212V212.4ZM156.212 201.543H149.696V188.513H156.212V201.543Z" fill="#F03738"/>
<path d="M73.3884 74.3026C73.3538 74.9586 73.6803 75.5581 73.8717 76.1859C74.1885 77.3983 74.1569 78.6755 73.7807 79.8709C73.4292 81.1264 72.8391 82.4541 73.2879 83.6814C73.3915 83.9701 73.5484 84.2338 73.6426 84.5226C74.0318 85.7153 73.3099 86.9708 72.5189 87.947L75.6232 90.1222C76.0764 90.4979 76.6156 90.7556 77.1926 90.8724C77.7733 90.9414 78.4481 90.6307 78.5674 90.0594C78.6082 89.8648 78.5674 89.6608 78.6051 89.463C78.6433 89.2073 78.7421 88.9645 78.8934 88.7548C79.0446 88.5451 79.2439 88.3747 79.4745 88.2577C79.9408 88.0291 80.4607 87.9325 80.978 87.9784C82.8832 88.082 84.5029 89.3344 86.2355 90.1379C87.3778 90.6325 88.5615 91.0254 89.7729 91.3118C90.4603 91.4907 91.2231 91.6539 91.8445 91.3118C92.466 90.9697 92.7517 90.1756 92.7046 89.4568C92.6081 88.7419 92.3849 88.0499 92.0454 87.4134C91.7029 86.7776 91.4965 86.0774 91.4396 85.3575C91.4396 84.3028 92.0172 83.3424 92.2118 82.3066C92.4849 80.8345 91.9293 79.3373 91.2513 78.0001C90.5733 76.663 89.751 75.3761 89.4214 73.9197C89.356 73.4782 89.2412 73.0455 89.0793 72.6296C88.9222 72.3138 88.7095 72.0289 88.4515 71.7884C87.287 70.6365 85.6266 70.0903 84.0007 69.9711C82.3748 69.8518 80.7332 70.1186 79.1198 70.3979C78.5043 70.4858 77.8981 70.6297 77.3087 70.828C76.4666 71.1626 75.6669 71.5957 74.9264 72.118C74.1919 72.6265 73.4354 73.3704 73.3884 74.3026Z" fill="#464353"/>
<g opacity="0.1">
<path opacity="0.1" d="M91.4303 84.7121C91.4303 84.8062 91.4303 84.9004 91.4491 84.9914C91.5464 84.0717 92.0298 83.2086 92.2024 82.2889C92.2691 81.9204 92.2891 81.545 92.262 81.1715C92.262 81.3347 92.2306 81.4854 92.2024 81.6612C92.0047 82.697 91.4177 83.6574 91.4303 84.7121Z" fill="black"/>
<path opacity="0.1" d="M74.0821 77.4397C74.119 76.8046 74.0479 76.1678 73.8718 75.5564C73.686 75.0801 73.5339 74.5914 73.4166 74.0938C73.4166 74.1597 73.3915 74.2225 73.3884 74.2884C73.3539 74.9444 73.6803 75.5439 73.8718 76.1717C73.9931 76.5843 74.0637 77.0101 74.0821 77.4397Z" fill="black"/>
<path opacity="0.1" d="M92.6763 89.2827C92.6544 89.5632 92.5668 89.8346 92.4207 90.075C92.2746 90.3155 92.074 90.5182 91.8351 90.6669C91.2074 91.009 90.4509 90.8458 89.7635 90.6669C88.5516 90.3808 87.3678 89.9869 86.2261 89.4898C84.4935 88.6894 82.8738 87.4371 80.9686 87.3335C80.4513 87.2876 79.9314 87.3842 79.4651 87.6128C79.2345 87.7297 79.0352 87.9002 78.884 88.1099C78.7327 88.3196 78.6339 88.5624 78.5957 88.8181C78.5737 89.0159 78.5957 89.2199 78.558 89.4145C78.4356 89.9858 77.7639 90.2965 77.1832 90.2275C76.6062 90.1107 76.067 89.853 75.6138 89.4773L72.8234 87.5187C72.7198 87.6599 72.6162 87.798 72.5095 87.9267L75.6138 90.105C76.067 90.4807 76.6062 90.7384 77.1832 90.8552C77.7639 90.9243 78.4387 90.6135 78.558 90.0423C78.5988 89.8477 78.558 89.6436 78.5957 89.4459C78.6339 89.1902 78.7327 88.9473 78.884 88.7376C79.0352 88.5279 79.2345 88.3575 79.4651 88.2406C79.9314 88.0119 80.4513 87.9153 80.9686 87.9612C82.8738 88.0648 84.4935 89.3172 86.2261 90.1176C87.3678 90.6146 88.5516 91.0086 89.7635 91.2946C90.4509 91.4736 91.2137 91.6368 91.8351 91.2946C92.4566 90.9525 92.7423 90.1584 92.6952 89.4396C92.692 89.3863 92.6826 89.336 92.6763 89.2827Z" fill="black"/>
<path opacity="0.1" d="M73.6427 84.5054C73.6814 84.6316 73.7097 84.7607 73.7274 84.8915C73.776 84.5515 73.7471 84.2049 73.6427 83.8777C73.5485 83.5889 73.3916 83.3252 73.288 83.0365C73.2125 82.8269 73.164 82.6086 73.1436 82.3867C73.0973 82.818 73.1465 83.2542 73.288 83.6642C73.3916 83.953 73.5485 84.2198 73.6427 84.5054Z" fill="black"/>
</g>
<path d="M77.3276 203.608C77.306 203.697 77.2552 203.777 77.1832 203.834C77.1068 203.874 77.0211 203.892 76.9352 203.887C75.8178 203.913 74.7004 203.887 73.5861 203.966C72.5315 204.057 71.4737 204.28 70.4222 204.161C70.0858 204.172 69.754 204.079 69.4729 203.894C69.1917 203.709 68.975 203.442 68.8528 203.128C68.7864 202.991 68.7278 202.851 68.677 202.707C68.3873 201.967 68.2414 201.179 68.247 200.385C68.247 200.174 68.247 199.97 68.247 199.757C68.2332 199.527 68.2028 199.298 68.156 199.073C68.0608 198.814 68.0721 198.529 68.1874 198.278C68.6331 197.465 69.7097 197.302 70.5383 197.239C72.4581 197.095 74.3886 197.237 76.2666 197.66C76.4142 198.382 76.5805 199.098 76.7563 199.813C76.886 200.339 77.0241 200.862 77.1706 201.383C77.2689 201.705 77.3486 202.033 77.4092 202.365C77.4868 202.78 77.4587 203.207 77.3276 203.608Z" fill="#464353"/>
<path opacity="0.06" d="M77.3277 203.608C77.3062 203.698 77.2553 203.777 77.1833 203.834C77.1069 203.874 77.0213 203.892 76.9353 203.888C75.8179 203.913 74.7005 203.888 73.5862 203.966C72.5316 204.057 71.4738 204.28 70.4223 204.161C70.0859 204.173 69.7542 204.08 69.473 203.895C69.1918 203.71 68.9751 203.442 68.8529 203.128C68.7866 202.991 68.7279 202.851 68.6771 202.707H69.0789C70.4003 202.707 71.7249 202.66 73.0463 202.66C73.445 202.66 73.8467 202.642 74.2422 202.595C74.6377 202.547 74.961 202.482 75.322 202.438C75.8623 202.386 76.4051 202.364 76.9479 202.372H77.3936C77.4752 202.783 77.4525 203.208 77.3277 203.608Z" fill="black"/>
<path d="M100.445 197.779C100.095 198.188 99.6483 198.502 99.1454 198.693C96.9106 199.635 94.3274 199.211 92.0204 198.445C91.5043 198.253 90.9744 198.101 90.4353 197.99C89.9434 197.921 89.4473 197.886 88.9506 197.886C88.5959 197.886 88.2412 197.858 87.8866 197.836C86.9889 197.779 86.0943 197.692 85.2029 197.604C84.5814 197.558 83.9644 197.465 83.3573 197.324C83.1846 197.28 83.0188 197.213 82.8645 197.123C82.7328 197.066 82.6203 196.971 82.5402 196.852C82.4602 196.732 82.4158 196.592 82.4125 196.449C82.4376 196.05 82.8519 195.821 83.216 195.648C86.4458 194.251 89.955 193.646 93.4391 193.159C93.7935 193.1 94.1386 192.994 94.4655 192.845C94.8578 192.688 94.8986 192.946 95.0932 193.235C95.1852 193.368 95.2903 193.492 95.4071 193.605C95.7855 193.947 96.2299 194.207 96.7129 194.371C97.5603 194.685 98.4675 194.769 99.3149 195.068C99.5713 195.157 99.8167 195.274 100.046 195.419C100.249 195.53 100.424 195.685 100.557 195.873C100.691 196.061 100.779 196.278 100.816 196.505C100.853 196.733 100.837 196.967 100.77 197.187C100.703 197.408 100.587 197.611 100.429 197.779H100.445Z" fill="#464353"/>
<path opacity="0.06" d="M100.445 197.78C100.095 198.188 99.6482 198.503 99.1454 198.693C96.9105 199.635 94.3273 199.211 92.0203 198.445C91.5042 198.254 90.9743 198.102 90.4352 197.99C89.9433 197.921 89.4472 197.887 88.9505 197.887C88.5958 197.887 88.2412 197.858 87.8865 197.836C88.1752 197.563 88.4703 197.297 88.7716 197.039C88.99 196.835 89.2416 196.669 89.5155 196.55C89.8566 196.438 90.2202 196.413 90.5733 196.477C92.3687 196.725 93.982 197.984 95.7931 197.874C96.6369 197.777 97.4531 197.514 98.1943 197.099C98.7971 196.853 99.3345 196.471 99.7637 195.981C99.8933 195.813 99.9921 195.623 100.056 195.42C100.258 195.53 100.433 195.685 100.566 195.874C100.7 196.062 100.788 196.278 100.825 196.506C100.862 196.734 100.847 196.967 100.78 197.188C100.713 197.409 100.596 197.611 100.439 197.78H100.445Z" fill="black"/>
<path d="M99.8141 143.231C99.5002 143.858 99.0984 144.54 98.4204 144.734C97.4348 145.017 96.4869 144.131 96.0569 143.202C95.4708 141.839 95.3602 140.318 95.743 138.883C95.9219 138.158 96.195 137.462 96.3488 136.733C96.4598 136.121 96.5269 135.501 96.5497 134.878C96.6425 133.95 96.6203 133.014 96.4838 132.091C95.9784 129.395 93.6589 127.383 92.8867 124.734C92.4975 123.412 92.5163 122.006 92.5383 120.628C92.531 120.28 92.5668 119.932 92.645 119.592C92.6684 119.5 92.6999 119.409 92.7392 119.322C93.2571 118.174 94.792 118.017 95.8592 117.348C96.4493 116.981 97.7895 115.797 98.2855 116.877C98.3925 117.118 98.4725 117.369 98.524 117.627C98.728 118.588 98.6464 119.715 98.6966 120.622C98.8881 124.049 99.7419 127.471 99.3464 130.879C99.2521 131.461 99.2059 132.048 99.2083 132.637C99.293 134.112 100.216 135.39 100.64 136.802C101.292 138.927 100.768 141.241 99.8141 143.231Z" fill="#FBBEBE"/>
<path opacity="0.1" d="M98.5396 117.633C98.3064 117.548 98.0509 117.548 97.8177 117.633L95.6927 118.261C94.9481 118.459 94.2223 118.723 93.5238 119.049C93.2189 119.198 92.9297 119.378 92.6606 119.585C92.684 119.493 92.7155 119.402 92.7548 119.315C93.2727 118.167 94.8076 118.01 95.8748 117.341C96.4649 116.974 97.8051 115.79 98.3011 116.87C98.409 117.115 98.4891 117.371 98.5396 117.633Z" fill="black"/>
<path d="M98.6778 117.394C98.5498 117.317 98.4053 117.27 98.256 117.258C98.1066 117.246 97.9566 117.269 97.8178 117.325L95.6928 117.953C94.9481 118.152 94.2224 118.415 93.5239 118.741C93.1532 118.921 92.8063 119.147 92.4912 119.413C91.4993 117.689 91.2357 115.646 91.0536 113.669C90.9532 112.517 90.8779 111.362 90.8339 110.216C90.7847 109.391 90.8015 108.564 90.8841 107.743C91.0034 106.801 91.2765 105.881 91.446 104.946C91.5469 104.398 91.612 103.845 91.6406 103.289C91.722 102.074 91.6662 100.853 91.4742 99.6507C91.2918 98.3725 90.9998 97.1124 90.6017 95.8842C90.4008 95.3223 90.1591 94.7793 89.9394 94.2269L89.864 94.0323C89.4672 93.0198 89.1431 91.9803 88.8941 90.9217C88.7937 90.4886 88.7874 90.0334 88.4547 89.7384C88.7671 89.7008 89.082 89.6882 89.3964 89.7007C89.4591 89.7007 89.5219 89.7007 89.5847 89.7007C90.8741 89.7818 92.1164 90.2162 93.1755 90.9562C94.5394 91.9403 95.5761 93.3117 96.1511 94.8923C96.8133 96.6595 96.9232 98.5804 97.008 100.467C97.1775 104.175 97.2821 107.885 97.3218 111.597C97.3218 112.31 97.3532 113.069 97.7613 113.656C97.8758 113.801 97.9806 113.953 98.0751 114.111C98.2227 114.425 98.2007 114.773 98.32 115.091C98.4076 115.281 98.5072 115.465 98.6182 115.643C98.7587 115.912 98.837 116.209 98.8473 116.512C98.8576 116.815 98.7997 117.117 98.6778 117.394Z" fill="#464353"/>
<path d="M77.7859 80.5519C77.472 80.4483 77.1581 80.3385 76.8442 80.238L77.4971 80.2883C77.6059 80.3613 77.7033 80.4502 77.7859 80.5519Z" fill="#FBBEBE"/>
<path d="M90.6393 91.8796C90.5765 92.093 90.5137 92.3064 90.4447 92.5073C90.2853 93.0231 90.0913 93.5275 89.864 94.0171C89.5083 94.8214 89.0047 95.5518 88.3793 96.1703C88.1729 96.3877 87.9195 96.5552 87.6386 96.66C87.4009 96.7208 87.1552 96.7441 86.9104 96.729C86.0734 96.729 85.2363 96.7165 84.3993 96.6913C83.7477 96.6986 83.0972 96.6344 82.4596 96.4999C81.7577 96.3084 81.0904 96.0076 80.4821 95.6085C78.1374 94.1583 76.2102 91.9486 75.3847 89.3308C75.2811 88.9981 75.2089 88.5995 75.438 88.339C75.6635 88.155 75.9475 88.0581 76.2384 88.0659H76.2761C76.9509 87.9781 77.6011 87.755 78.1876 87.4099C78.5676 87.2154 78.8739 86.9025 79.0602 86.5185C79.1874 86.0633 79.1775 85.5807 79.032 85.1311L78.3352 81.9672C78.2626 81.4605 78.0723 80.9778 77.7796 80.5579C77.9836 80.6301 78.1876 80.696 78.4074 80.7525C80.3471 81.2767 82.469 80.9597 84.3711 81.647C85.0993 81.9138 85.8275 82.3941 86.0472 83.1411C86.4144 84.3966 85.1872 85.6992 85.5387 86.9548C85.7741 87.8085 86.6436 88.3013 87.422 88.6999L87.9462 88.9667L89.3995 89.7044L89.6003 89.8048L89.6317 89.8205C90.09 90.0528 90.5734 90.3415 90.7334 90.8343C90.8017 91.1846 90.7691 91.5471 90.6393 91.8796Z" fill="#FBBEBE"/>
<path opacity="0.1" d="M94.4686 99.249C94.4154 100.051 94.2199 100.838 93.8911 101.572C93.2609 102.841 92.9231 104.235 92.9024 105.652C92.6607 109.89 91.0505 114.934 93.3575 118.493C93.414 118.581 93.4705 118.669 93.5238 118.76C93.1532 118.94 92.8063 119.166 92.4912 119.432C91.4993 117.708 91.2357 115.665 91.0536 113.688C90.9532 112.536 90.8778 111.38 90.8339 110.235C90.7846 109.41 90.8014 108.583 90.8841 107.761C91.0034 106.82 91.2765 105.9 91.446 104.965C91.5469 104.417 91.6119 103.864 91.6406 103.307C91.722 102.092 91.6662 100.872 91.4742 99.6696C91.2917 98.3914 90.9998 97.1313 90.6016 95.903C90.4007 95.3412 90.159 94.7982 89.9393 94.2457L89.864 94.0511C89.5083 94.8555 89.0047 95.5859 88.3793 96.2044C88.1729 96.4218 87.9195 96.5893 87.6386 96.694C87.4009 96.7548 87.1552 96.7781 86.9104 96.7631C86.0734 96.7631 85.2363 96.7505 84.3993 96.7254C83.7477 96.7326 83.0972 96.6684 82.4596 96.5339C81.7577 96.3425 81.0904 96.0416 80.4821 95.6425C78.1374 94.1924 76.2102 91.9827 75.3847 89.3649C75.2811 89.0322 75.2089 88.6336 75.438 88.373C75.6635 88.1891 75.9475 88.0922 76.2384 88.1H76.2761L79.101 91.5934C79.425 91.9632 79.6994 92.3737 79.9171 92.8144C79.9593 92.9623 80.0472 93.0931 80.1682 93.188C80.2665 93.2328 80.3744 93.2523 80.4821 93.2445C83.1344 93.2445 86.6687 93.2445 89.321 93.2445C89.3297 92.7745 89.1938 92.3132 88.9318 91.923C88.8502 91.9419 88.7403 91.9481 88.9098 91.8979C88.7564 90.879 88.4272 89.8945 87.9368 88.9882C87.9075 88.9259 87.875 88.8652 87.8395 88.8062C87.6287 88.4957 87.4716 88.1519 87.3749 87.7892C87.7098 87.6825 88.0696 87.6825 88.4044 87.7892C88.7905 87.9556 88.9914 88.373 89.1609 88.7591C89.3053 89.073 89.4497 89.4088 89.5784 89.7384C89.5784 89.7729 89.6098 89.8106 89.6223 89.8451C89.896 90.4946 90.0716 91.1811 90.1433 91.8822C90.1622 92.1396 90.225 92.466 90.4384 92.5508C90.472 92.5661 90.5082 92.5747 90.5451 92.5759C90.7661 92.495 91.0062 92.4817 91.2347 92.5375C91.4633 92.5934 91.6702 92.716 91.8289 92.8898C92.1377 93.2434 92.3534 93.6685 92.4566 94.1265C92.5587 94.5843 92.7081 95.0303 92.9024 95.4573C93.3073 96.2295 92.6889 96.5747 93.4203 97.0487C93.7623 97.2368 94.0565 97.501 94.2803 97.8208C94.4872 98.2666 94.5529 98.7649 94.4686 99.249Z" fill="black"/>
<path opacity="0.1" d="M76.2384 197.673C76.386 198.395 76.5523 199.111 76.7281 199.826L76.7093 199.87C75.2748 199.242 73.8059 198.586 72.2396 198.448C70.7863 198.323 69.2075 198.715 68.2188 199.77C68.2051 199.54 68.1746 199.311 68.1278 199.085C68.0326 198.827 68.0439 198.541 68.1592 198.291C68.6049 197.478 69.6815 197.315 70.5101 197.252C72.4299 197.108 74.3604 197.249 76.2384 197.673Z" fill="black"/>
<path opacity="0.1" d="M88.6022 92.4977C88.7497 92.4977 88.6964 92.4977 88.6242 92.5228C88.552 92.5479 88.4327 92.5479 88.6022 92.4977Z" fill="black"/>
<path opacity="0.1" d="M95.4228 193.605C94.023 194.497 92.7076 195.515 91.493 196.646C91.1404 197.024 90.7198 197.332 90.2532 197.554C89.7714 197.709 89.2624 197.761 88.7591 197.707C86.7846 197.627 84.8163 197.432 82.8645 197.123C82.7328 197.066 82.6203 196.971 82.5402 196.852C82.4602 196.732 82.4158 196.592 82.4125 196.449C82.4376 196.05 82.8519 195.821 83.216 195.648C86.4458 194.251 89.955 193.646 93.4391 193.159C93.7935 193.1 94.1386 192.994 94.4655 192.845C94.8578 192.688 94.8986 192.946 95.0932 193.235C95.1901 193.369 95.3006 193.493 95.4228 193.605Z" fill="black"/>
<path d="M72.3933 88.8569C72.8547 89.2681 73.3821 89.6008 73.8497 89.9995C75.1053 91.0635 75.8962 92.5513 76.6747 94.0014C76.213 94.1683 75.7138 94.202 75.234 94.0987C74.9871 95.4912 75.0288 96.9196 75.3564 98.2953C74.7283 98.7262 74.2405 99.3319 73.9533 100.037C73.7302 100.753 73.5767 101.489 73.4951 102.235C73.0431 105.501 72.589 108.767 72.1328 112.034C72.1236 112.354 72.0138 112.662 71.8189 112.916C71.7318 112.986 71.6519 113.065 71.5804 113.151C71.4843 113.362 71.4464 113.595 71.4705 113.826C71.4517 114.055 71.301 114.328 71.0719 114.297C70.9606 114.27 70.8619 114.206 70.7925 114.115C70.5633 113.872 70.3534 113.612 70.1648 113.336C68.3129 116.89 67.4215 120.719 66.4422 124.605C65.7422 127.373 65.0422 130.173 65.0077 133.029C65.0172 134.381 65.1021 135.73 65.262 137.072L65.5382 139.828C65.761 142.044 65.9839 144.263 66.2256 146.479C66.3825 147.885 66.5395 149.304 67.0448 150.629C67.7981 152.641 66.9632 154.91 67.2834 157.038C67.5345 158.705 68.0335 160.428 67.5313 162.035C67.3304 162.678 66.9789 163.265 66.7152 163.887C66.0686 165.431 66.0027 167.148 65.9462 168.821C65.8446 170.288 65.8993 171.761 66.1094 173.215C66.3794 174.719 66.9852 176.191 66.8659 177.71C66.6995 179.873 65.105 181.722 64.9104 183.881C64.7566 185.604 65.5131 187.268 66.326 188.796C66.9255 189.923 66.0906 191.38 65.7736 192.62C65.1458 195.049 66.1911 197.591 67.4717 199.748C67.5043 199.822 67.5622 199.882 67.6349 199.917C67.7824 199.971 67.9143 199.826 68.0116 199.704C68.9752 198.467 70.6827 197.999 72.2489 198.134C73.8152 198.269 75.281 198.916 76.7186 199.556L78.7557 195.021C79.101 194.252 79.4525 193.42 79.2799 192.594C79.1575 192.004 78.7777 191.505 78.5077 190.965C77.88 189.691 77.8486 188.206 77.8423 186.778L77.8046 178.712C79.3929 176.715 80.3628 174.342 80.9748 171.863C81.9138 175.35 81.9785 179.016 81.1632 182.535C81.0123 183.067 80.9073 183.611 80.8493 184.16C80.7269 186.398 82.4814 188.291 82.9491 190.482C82.9945 190.65 83.0072 190.824 82.9868 190.997C82.9342 191.209 82.8461 191.41 82.7263 191.593C81.8851 193.119 81.9761 194.967 82.0985 196.706C84.2996 197.089 86.5236 197.328 88.7559 197.419C89.2592 197.469 89.7675 197.417 90.25 197.265C90.7167 197.042 91.1373 196.733 91.4898 196.355C92.915 195.014 94.4797 193.83 96.1572 192.824C95.2205 191.269 93.9094 189.974 92.3436 189.057C92.8489 188.313 94.0009 188.373 94.6726 187.776C95.0099 187.443 95.2301 187.009 95.3003 186.54C95.5514 185.309 95.2407 184.029 94.93 182.82C94.3273 180.441 93.7215 178.052 92.7328 175.805C92.2856 174.881 91.8916 173.933 91.5526 172.964C90.7302 170.259 91.3046 167.315 90.6832 164.549C90.4823 163.664 90.159 162.751 90.385 161.869C90.7302 160.51 92.2683 159.703 92.6072 158.341C93.822 153.491 94.0385 148.466 94.7291 143.516C94.8835 142.571 94.9664 141.615 94.977 140.657C94.977 139.655 94.7981 138.663 94.7259 137.665C94.4434 133.67 95.7209 129.683 95.3945 125.691C95.1855 123.23 94.3749 120.859 93.0341 118.785C90.7271 115.223 92.3373 110.182 92.579 105.945C92.5972 104.528 92.934 103.133 93.5646 101.864C93.8961 101.131 94.0928 100.344 94.1453 99.5414C94.2421 99.0465 94.1806 98.5336 93.9695 98.0756C93.7486 97.7544 93.455 97.4898 93.1126 97.3035C92.3812 96.8264 92.9996 96.4811 92.5947 95.709C92.3999 95.2822 92.2505 94.8361 92.149 94.3781C92.0463 93.9209 91.8304 93.4967 91.5212 93.1445C91.3625 92.9708 91.1557 92.8482 90.9271 92.7923C90.6985 92.7364 90.4584 92.7498 90.2374 92.8307C89.9393 92.8307 89.8576 92.4352 89.8325 92.137C89.7478 91.0447 89.2958 90.0183 88.8532 89.0139C88.6837 88.6278 88.4828 88.2103 88.0968 88.044C87.7606 87.9388 87.4003 87.9388 87.0641 88.044C87.1613 88.408 87.3194 88.7529 87.5318 89.0641C88.0759 90.0186 88.4377 91.0659 88.599 92.1527C88.2851 92.2468 88.9129 92.1527 88.599 92.1527C88.88 92.5443 89.0245 93.0174 89.0102 93.4992C86.361 93.4992 82.8267 93.4992 80.1744 93.4992C80.0667 93.5077 79.9586 93.4883 79.8605 93.4427C79.7396 93.3472 79.6508 93.2168 79.6063 93.0692C79.3905 92.6283 79.116 92.2186 78.7902 91.8514L75.6828 88.0189C75.6138 87.9187 75.5225 87.836 75.416 87.7772C75.2877 87.741 75.1519 87.741 75.0236 87.7772C74.0161 87.9247 73.2722 88.3453 72.3933 88.8569Z" fill="#3E66FB"/>
<path opacity="0.1" d="M83.5455 140.785C84.0813 140.778 84.6092 140.914 85.0742 141.18C85.3049 141.316 85.4963 141.51 85.6295 141.742C85.7627 141.974 85.8331 142.237 85.8337 142.505C85.7992 143.098 85.3441 143.569 85.0145 144.074C84.8105 144.382 84.648 144.716 84.5311 145.066C84.4951 145.146 84.4863 145.235 84.506 145.32C84.5437 145.44 84.6724 145.499 84.7822 145.553C85.1816 145.733 85.5226 146.022 85.7672 146.385C86.0117 146.749 86.15 147.174 86.1665 147.612C86.1382 148.836 84.9423 149.828 85.0082 151.064C85.0382 151.322 85.0822 151.578 85.1401 151.83C85.2837 152.884 85.1372 153.958 84.7163 154.935C84.3365 155.92 83.8186 156.846 83.4106 157.822C82.3089 160.475 82.0703 163.412 82.1551 166.297C82.221 168.256 81.5273 170.12 80.8995 171.985C81.2543 168.229 81.3487 164.453 81.182 160.685C81.1381 159.662 81.0094 158.695 81.0565 157.668C81.1318 156.039 82.0421 154.558 82.2743 152.96C82.4062 152.047 82.3183 151.118 82.3402 150.195C82.3842 148.312 82.8958 146.454 82.9303 144.564C82.9743 143.23 82.8519 141.855 83.5455 140.785Z" fill="black"/>
<path d="M70.4473 89.5282C69.8233 89.8393 69.2394 90.225 68.7084 90.677C68.1536 91.2282 67.6896 91.8639 67.3336 92.5603C66.9002 93.3497 66.5114 94.1629 66.1691 94.996C65.7266 96.0757 65.3593 97.2716 65.6638 98.3985C65.94 99.4186 66.7216 100.213 67.2614 101.12C67.8013 102.027 68.1183 103.091 68.5326 104.086C69.0851 105.414 69.8415 106.65 70.3877 107.981C70.9338 109.312 71.2634 110.806 70.9181 112.19C70.8177 112.598 70.1554 112.915 70.1554 113.333C70.1554 114.023 71.1535 114.774 71.8158 114.974C72.5786 115.21 73.4103 114.858 74.035 114.347C75.1806 113.44 75.8775 112.081 76.3922 110.712C77.2209 108.515 77.6634 106.183 78.0621 103.866C78.3508 102.165 78.6208 100.461 78.7746 98.7469C78.9158 97.2026 78.9598 95.6081 78.5517 94.1265C78.171 92.7667 77.4303 91.5349 76.4079 90.5609C75.5918 89.7762 74.2547 88.7215 73.0682 88.6933C72.1297 88.6901 71.2509 89.0856 70.4473 89.5282Z" fill="#464353"/>
<path d="M79.3709 127.367C79.3369 127.581 79.2567 127.786 79.1358 127.966C79.015 128.147 78.8564 128.299 78.671 128.412C78.3006 128.637 77.897 128.802 77.4751 128.902C76.6339 129.146 75.7425 129.372 74.8919 129.156C74.2234 128.938 73.6061 128.587 73.0776 128.123L63.5733 120.847C62.8098 120.306 62.1078 119.683 61.4798 118.989C61.1192 118.541 60.7879 118.07 60.4879 117.58C60.0907 117.018 59.7797 116.4 59.5651 115.747C59.4885 115.459 59.4505 115.163 59.4521 114.865C59.4496 114.583 59.5187 114.306 59.653 114.058C59.8821 113.675 60.3718 113.597 60.7735 113.49C62.122 113.141 63.5217 113.035 64.9073 113.176C65.0291 113.17 65.1494 113.204 65.2501 113.273C65.3509 113.341 65.4267 113.441 65.466 113.556C65.6763 113.942 65.8584 114.344 66.0467 114.746C66.3358 115.431 66.7124 116.075 67.1673 116.663C67.6055 117.14 68.0719 117.589 68.564 118.01C69.5685 118.952 70.3908 120.082 71.4612 120.948C72.701 121.949 74.2076 122.549 75.6201 123.286C77.0325 124.024 78.4262 124.981 79.1355 126.409C79.3001 126.701 79.3815 127.032 79.3709 127.367Z" fill="#FBBEBE"/>
<path opacity="0.1" d="M90.3725 76.6055C90.3728 78.5872 89.6162 80.4942 88.2572 81.9365C86.8982 83.3788 85.0396 84.2475 83.0614 84.3649C81.0832 84.4824 79.1348 83.8397 77.6147 82.5683C76.0946 81.2969 75.1176 79.4928 74.8835 77.525C74.6494 75.5572 75.1759 73.5743 76.3553 71.9817C77.5347 70.3892 79.2778 69.3073 81.2284 68.9574C83.1789 68.6074 85.1895 69.0158 86.8489 70.099C88.5084 71.1823 89.6913 72.8585 90.1559 74.785C90.3 75.3811 90.3727 75.9922 90.3725 76.6055Z" fill="black"/>
<path d="M90.3725 76.2915C90.3728 78.2732 89.6162 80.1801 88.2572 81.6225C86.8982 83.0648 85.0396 83.9335 83.0614 84.0509C81.0832 84.1684 79.1348 83.5257 77.6147 82.2543C76.0946 80.9829 75.1176 79.1788 74.8835 77.211C74.6494 75.2432 75.1759 73.2602 76.3553 71.6677C77.5347 70.0752 79.2778 68.9933 81.2284 68.6433C83.1789 68.2934 85.1895 68.7018 86.8489 69.785C88.5084 70.8683 89.6913 72.5445 90.1559 74.471C90.3 75.0671 90.3727 75.6782 90.3725 76.2915Z" fill="#FBBEBE"/>
<path opacity="0.1" d="M66.0467 114.733C65.6889 114.962 65.1584 114.887 64.7159 114.786C62.9707 114.397 61.0435 114.118 59.4521 114.865C59.4496 114.583 59.5187 114.306 59.653 114.058C59.8821 113.675 60.3718 113.597 60.7735 113.49C62.122 113.141 63.5217 113.035 64.9073 113.176C65.0291 113.17 65.1494 113.204 65.2501 113.273C65.3509 113.341 65.4267 113.441 65.466 113.556C65.6763 113.929 65.8584 114.331 66.0467 114.733Z" fill="black"/>
<path d="M62.7667 104.165C62.3806 105.42 62.0636 106.71 61.3072 107.774C61.0571 108.054 60.8688 108.384 60.7547 108.741C60.7461 109.005 60.7029 109.267 60.626 109.52C60.5193 109.733 60.2933 109.874 60.2023 110.094C60.0673 110.408 60.2431 110.813 60.0642 111.108C59.9804 111.226 59.88 111.332 59.766 111.422C59.3391 111.817 59.2324 112.448 59.223 113.032C59.2136 113.616 59.2701 114.212 59.0786 114.761C60.7359 113.773 62.8452 114.068 64.7285 114.488C65.2526 114.604 65.9024 114.692 66.2414 114.272C66.5804 113.851 66.3857 113.299 66.4328 112.793C66.4956 112.134 66.9476 111.588 67.2269 110.989C67.5408 110.314 67.6476 109.56 67.8892 108.857C68.3883 107.379 69.4586 106.174 70.146 104.777C70.4005 104.297 70.5523 103.768 70.5917 103.226C70.568 102.524 70.3845 101.836 70.055 101.214C69.4018 99.7678 68.6247 98.3805 67.7323 97.068C67.3337 96.481 66.6463 95.395 66.0279 96.3335C65.5257 97.09 65.2118 98.0536 64.8415 98.8822C64.0433 100.599 63.3504 102.363 62.7667 104.165Z" fill="#464353"/>
<path d="M91.0882 91.9793C90.1457 92.0442 89.2007 91.8978 88.322 91.5508C87.4434 91.2038 86.6533 90.6649 86.0096 89.9736C85.9012 89.8749 85.8228 89.7476 85.7836 89.6063C85.7656 89.4227 85.8172 89.2391 85.928 89.0916C86.3046 88.5109 86.9544 88.1279 87.2557 87.5033C87.557 86.8787 87.4534 86.1599 87.4817 85.4757C87.5319 84.2484 88.0153 83.0337 88.0561 81.8252C88.0706 81.516 88.0474 81.2061 87.987 80.9024C87.8426 80.4515 87.754 79.9845 87.7234 79.5119C87.7642 78.5923 88.5928 77.8766 88.7309 76.9695C88.9098 75.8144 87.9525 74.81 86.9889 74.1446C86.2541 73.635 85.4565 73.2225 84.6159 72.9173C84.0997 72.7324 83.5651 72.603 83.0214 72.5312C82.0078 72.3943 80.976 72.5096 80.0176 72.8671C79.6209 73.0167 79.2453 73.2172 78.9002 73.4635C78.6946 73.5935 78.5234 73.7711 78.4011 73.9814C78.3005 74.2181 78.2554 74.4747 78.2693 74.7315C78.2505 76.0153 78.3948 77.3807 77.7828 78.4981C77.4689 79.0976 76.9353 79.5841 76.6748 80.2182C76.5682 80.482 76.5015 80.7602 76.477 81.0437C76.4456 81.3377 76.4299 81.6331 76.4299 81.9288C76.4111 83.583 76.4299 85.3281 77.2711 86.7626C77.568 87.1962 77.8374 87.6481 78.0778 88.1154C78.1944 88.3518 78.2484 88.6141 78.2347 88.8774C78.2209 89.1406 78.1399 89.3959 77.9994 89.6189C77.8294 89.8223 77.6145 89.9835 77.3716 90.0897C76.7484 90.3888 76.0702 90.5559 75.3794 90.5808C74.6886 90.6056 74.0001 90.4876 73.3571 90.2341C74.1091 89.5215 74.6256 88.5962 74.8377 87.5821C75.0497 86.568 74.9471 85.5133 74.5435 84.5591C74.3168 84.1737 74.1695 83.7468 74.1104 83.3036C74.1419 82.9043 74.2483 82.5146 74.4242 82.1548C74.8545 80.9753 74.9212 79.6939 74.6157 78.4761C74.4243 77.7291 74.0915 77.0072 74.0319 76.2382C73.9821 75.6577 74.0074 75.0732 74.1072 74.4993C74.2793 73.4723 74.7317 72.5129 75.4147 71.7269C76.0976 70.9409 76.9845 70.359 77.9774 70.0453C78.1375 69.9919 78.2913 69.9417 78.467 69.8978C79.2285 69.7287 80.0066 69.6455 80.7866 69.6498C82.5286 69.5933 84.2958 69.5431 85.9751 69.9982C86.961 70.2564 87.8781 70.7278 88.6619 71.3793C89.2182 71.847 89.6623 72.4338 89.9613 73.0962C90.1247 73.4778 90.2478 73.8755 90.3286 74.2827C90.4008 74.6185 90.4541 74.9575 90.5075 75.2965C90.8873 77.7103 91.2671 80.1711 90.8622 82.5817C90.7021 83.5233 90.4227 84.465 90.2972 85.4254C89.9927 87.6383 90.542 89.8386 91.0882 91.9793Z" fill="#464353"/>
<path d="M79.936 95.0813C80.2584 95.0813 80.5198 94.82 80.5198 94.4975C80.5198 94.1751 80.2584 93.9137 79.936 93.9137C79.6136 93.9137 79.3522 94.1751 79.3522 94.4975C79.3522 94.82 79.6136 95.0813 79.936 95.0813Z" fill="white"/>
<path d="M89.7886 94.8047C90.1111 94.8047 90.3725 94.5433 90.3725 94.2209C90.3725 93.8984 90.1111 93.637 89.7886 93.637C89.4662 93.637 89.2048 93.8984 89.2048 94.2209C89.2048 94.5433 89.4662 94.8047 89.7886 94.8047Z" fill="white"/>
<path opacity="0.1" d="M79.9359 64.9918L78.6804 62.622C78.76 62.5272 78.8471 62.4391 78.9409 62.3583C79.1222 62.2466 79.3346 62.196 79.5467 62.2139L79.9359 64.9918Z" fill="black"/>
<path opacity="0.1" d="M83.3981 62.1046L81.9762 64.2076L81.1664 61.9006C81.5119 61.7521 81.8859 61.6814 82.2618 61.6934C82.6608 61.7662 83.0449 61.9052 83.3981 62.1046Z" fill="black"/>
<g opacity="0.1">
<path opacity="0.1" d="M77.9992 88.9975C77.8293 89.201 77.6144 89.3621 77.3715 89.4683C76.2584 90.0009 74.9887 90.107 73.8026 89.7665C73.6648 89.9342 73.5159 90.0925 73.3569 90.2405C74 90.494 74.6885 90.612 75.3793 90.5871C76.07 90.5623 76.7483 90.3951 77.3715 90.0961C77.6144 89.9899 77.8293 89.8287 77.9992 89.6253C78.1072 89.4685 78.1809 89.2908 78.2155 89.1037C78.2502 88.9165 78.2449 88.7242 78.2001 88.5392C78.1688 88.7052 78.1001 88.8619 77.9992 88.9975Z" fill="black"/>
<path opacity="0.1" d="M74.5936 78.4854C74.6961 78.8967 74.7561 79.3174 74.7725 79.741C74.8087 79.1078 74.7484 78.4727 74.5936 77.8577C74.4021 77.1106 74.0694 76.3887 74.0098 75.6197C74.0098 75.5224 74.0098 75.4251 73.9941 75.3247C73.979 75.6323 73.9843 75.9405 74.0098 76.2475C74.0694 77.0165 74.4021 77.7384 74.5936 78.4854Z" fill="black"/>
<path opacity="0.1" d="M90.8401 82.5915C90.9733 81.7615 91.03 80.9209 91.0095 80.0805C90.9985 80.7115 90.9419 81.3409 90.8401 81.9638C90.68 82.9054 90.4006 83.8471 90.2751 84.8075C90.2103 85.3228 90.1862 85.8423 90.2029 86.3613C90.2114 86.0516 90.2355 85.7426 90.2751 85.4353C90.4006 84.4748 90.68 83.5426 90.8401 82.5915Z" fill="black"/>
<path opacity="0.1" d="M74.5308 83.9373C74.3664 83.6282 74.2339 83.3033 74.1353 82.9674C74.1087 83.0805 74.096 83.1965 74.0977 83.3127C74.1568 83.7559 74.3041 84.1828 74.5308 84.5682C74.7613 85.0944 74.8942 85.658 74.9232 86.2318C74.98 85.4464 74.8453 84.6591 74.5308 83.9373Z" fill="black"/>
<path opacity="0.1" d="M87.987 80.8903C88.0145 81.0336 88.0344 81.1782 88.0466 81.3235C88.0466 81.2764 88.0466 81.2325 88.0466 81.1854C88.0611 80.8761 88.0379 80.5662 87.9775 80.2626C87.9085 79.933 87.7955 79.6066 87.7421 79.2739C87.7265 79.3483 87.7171 79.4239 87.7139 79.4998C87.7476 79.9728 87.8393 80.4398 87.987 80.8903Z" fill="black"/>
<path opacity="0.1" d="M86.0095 89.3332C85.9611 89.2827 85.9161 89.2293 85.8745 89.1731C85.7973 89.2989 85.7651 89.4472 85.7835 89.5937C85.8227 89.735 85.901 89.8623 86.0095 89.961C86.6532 90.6523 87.4433 91.1912 88.3219 91.5382C89.2005 91.8852 90.1456 92.0316 91.088 91.9666C91.0347 91.7595 90.9813 91.5555 90.9311 91.3389C90.0144 91.381 89.0995 91.2235 88.2497 90.8772C87.4 90.5309 86.6356 90.0041 86.0095 89.3332Z" fill="black"/>
<path opacity="0.1" d="M88.7245 76.3735C88.723 76.362 88.723 76.3504 88.7245 76.339C88.9034 75.1839 87.946 74.1795 86.9824 73.514C86.2476 73.0045 85.45 72.5919 84.6095 72.2868C84.0932 72.1018 83.5587 71.9724 83.015 71.9007C82.0013 71.7637 80.9695 71.8791 80.0111 72.2366C79.6145 72.3862 79.2389 72.5867 78.8937 72.8329C78.6882 72.9629 78.517 73.1406 78.3947 73.3508C78.2941 73.5875 78.249 73.8442 78.2628 74.101C78.2628 74.3176 78.2628 74.5342 78.2628 74.7539V74.7288C78.249 74.4719 78.2941 74.2153 78.3947 73.9786C78.517 73.7683 78.6882 73.5907 78.8937 73.4607C79.2389 73.2144 79.6145 73.014 80.0111 72.8643C80.9695 72.5069 82.0013 72.3915 83.015 72.5285C83.5587 72.6002 84.0932 72.7296 84.6095 72.9145C85.45 73.2197 86.2476 73.6322 86.9824 74.1418C87.7828 74.6817 88.5707 75.4601 88.7245 76.3735Z" fill="black"/>
<path opacity="0.1" d="M77.7826 77.8762C77.4688 78.4758 76.9352 78.9623 76.6746 79.5963C76.568 79.8601 76.5014 80.1383 76.4769 80.4218C76.4455 80.7158 76.4298 81.0113 76.4298 81.307C76.4298 81.5738 76.4298 81.8437 76.4298 82.1136C76.4298 82.054 76.4298 81.9944 76.4298 81.9347C76.4298 81.639 76.4455 81.3436 76.4769 81.0496C76.5014 80.7661 76.568 80.4879 76.6746 80.2241C76.9352 79.5963 77.4562 79.1035 77.7826 78.504C78.288 77.5624 78.2786 76.4795 78.2691 75.4029C78.3108 76.2546 78.1438 77.1037 77.7826 77.8762Z" fill="black"/>
</g>
<path opacity="0.1" d="M90.3065 74.3056C90.2634 74.367 90.2127 74.4229 90.1559 74.4719C90.0451 74.5631 89.9213 74.6371 89.7886 74.6916C88.8753 75.0871 88.9129 73.7971 88.4358 73.3545C88.1299 73.1288 87.7544 73.0177 87.3749 73.0406C86.4563 72.9946 85.5366 72.9538 84.6159 72.9182C83.081 72.8617 81.5493 72.8335 80.0175 72.868C79.2831 72.8805 78.5507 72.9109 77.8204 72.959C76.9729 73.0155 76.0627 73.1254 75.3407 73.5271C75.0936 73.6631 74.87 73.838 74.6784 74.045C74.5058 74.2334 74.3238 74.4719 74.0852 74.5159C74.2572 73.4889 74.7097 72.5295 75.3927 71.7435C76.0756 70.9575 76.9625 70.3756 77.9553 70.0619C79.5627 68.8646 81.5707 68.3349 83.5595 68.5835C85.5483 68.8321 87.3641 69.8398 88.6273 71.3959C89.1836 71.8636 89.6277 72.4503 89.9268 73.1128C90.0948 73.496 90.2221 73.8958 90.3065 74.3056Z" fill="black"/>
<path d="M89.7886 74.0639C88.8752 74.4594 88.9129 73.1693 88.4358 72.7268C88.1299 72.5011 87.7544 72.39 87.3749 72.4129C84.1942 72.2037 81.0042 72.1764 77.8204 72.3313C76.6873 72.4066 75.4443 72.5761 74.6816 73.4173C74.487 73.6307 74.2829 73.9069 73.991 73.8975C73.8937 73.2698 73.8247 72.6169 73.7776 71.9734C73.7491 71.7324 73.7619 71.4883 73.8153 71.2515C73.8937 70.9816 74.0726 70.7524 74.1637 70.4888C74.2533 70.1534 74.2851 69.8053 74.2578 69.4593C74.2716 68.1787 74.6157 66.9234 75.2569 65.8148C75.8981 64.7062 76.8146 63.7819 77.9177 63.1314C78.1946 62.996 78.4513 62.8228 78.6804 62.6167C78.76 62.5219 78.8471 62.4337 78.9409 62.353C79.1222 62.2413 79.3345 62.1907 79.5467 62.2086C79.6974 62.2086 79.8606 62.2086 79.9924 62.2086C80.3984 62.1639 80.7952 62.0581 81.1695 61.8947C81.515 61.7463 81.889 61.6756 82.2649 61.6876C82.6639 61.7604 83.048 61.8994 83.4012 62.0988C83.571 62.1806 83.7487 62.2447 83.9316 62.2902C84.2173 62.3561 84.5123 62.353 84.7979 62.4095C85.2606 62.5273 85.7 62.7225 86.0974 62.987C86.5717 63.2428 87.0107 63.5594 87.4031 63.9287C87.8299 64.4164 88.1715 64.9724 88.4138 65.5734C88.8295 66.4038 89.1456 67.2803 89.3555 68.1849C89.6097 69.4844 89.4842 70.8906 90.0868 72.0707C90.4541 72.8115 90.7899 73.6339 89.7886 74.0639Z" fill="#FED253"/>
<path opacity="0.1" d="M73.8781 73.0774C73.8781 73.0774 80.3848 67.1577 90.0743 72.0667C90.0743 72.0667 79.1356 69.5777 73.8781 73.0774Z" fill="black"/>
<path d="M2.97865 103.327C2.09351 101.876 0.762658 100.549 0.969819 98.904C3.40553 99.1834 5.71569 98.5902 7.94738 97.5575C10.1791 96.5248 12.2507 95.1846 14.3411 93.8694C15.1635 93.3515 15.9827 92.843 16.7988 92.3722C18.092 91.6314 19.3758 90.8028 20.6909 90.0777C22.5742 89.0419 24.4952 88.1945 26.6107 88.0312C26.9939 88.0013 27.3784 87.9919 27.7627 88.003C30.3679 88.0532 33.0672 88.7532 35.3586 87.5855L35.4998 87.5102C36.7993 86.7977 37.7441 85.5861 38.8583 84.6037C39.6594 83.9108 40.5316 83.3048 41.4604 82.7957C43.1522 81.8541 44.9853 81.1008 46.7148 80.2125C47.1575 79.9844 47.5778 79.7154 47.9703 79.4089L48.2653 79.1735L48.3312 79.117C48.4034 79.0574 48.4756 78.9977 48.5447 78.935L48.6796 78.8157L48.8178 78.6901L48.9245 78.5897L49.0971 78.4265L49.1159 78.4045L49.389 78.1346L49.4989 78.0247L49.6903 77.827L49.8033 77.714C49.9948 77.5162 50.1863 77.3154 50.3809 77.1207C50.5755 76.9261 50.8391 76.6625 51.0746 76.4459L51.3006 76.245L51.3665 76.1885L51.5485 76.0379L51.6333 75.9657L51.8122 75.8276L51.9001 75.7585C51.9879 75.6926 52.079 75.6298 52.17 75.567C52.2538 75.509 52.3419 75.4576 52.4337 75.4132L51.8467 73.9914L53.5354 73.2945L76.8253 129.809L75.1335 130.506L61.8124 98.1758L61.7182 98.27C58.6324 101.315 54.8525 103.564 50.7042 104.824H50.6791C48.3595 105.524 45.7637 106.02 43.8114 107.319C43.1191 107.769 42.5175 108.345 42.0379 109.017C41.5797 109.67 41.2595 110.414 40.7824 111.042C40.6914 111.158 40.591 111.271 40.4905 111.378C39.9197 111.944 39.2881 112.445 38.6072 112.872L38.309 113.076C36.2867 114.499 34.1799 115.797 32 116.965C30.7421 117.619 29.4306 118.166 28.0797 118.597C27.0972 118.911 26.0834 119.14 25.101 119.451C24.4401 119.651 23.7983 119.909 23.1831 120.223C21.5196 121.092 20.2421 122.455 19.0336 123.908C17.9759 125.182 16.9714 126.532 15.8101 127.693C15.0819 128.415 13.9739 129.099 13.095 128.676L12.9161 128.572C12.9444 128.525 12.9663 128.478 12.9914 128.428C13.6851 126.974 12.8314 125.179 11.6826 124.014C11.5633 123.892 11.4409 123.773 11.3153 123.66C11.1898 123.547 10.9638 123.346 10.7849 123.189C9.80241 122.345 8.75719 121.56 8.07607 120.471C7.55621 119.556 7.20334 118.556 7.03399 117.517C6.72011 116.039 6.50981 114.516 5.70627 113.258C5.17896 112.426 4.39425 111.717 3.82299 110.919C3.46188 110.448 3.2245 109.893 3.13246 109.306C3.00376 108.286 3.47772 107.288 3.65664 106.271C3.70986 105.994 3.73197 105.712 3.72255 105.43C3.65698 104.677 3.40099 103.953 2.97865 103.327Z" fill="url(#paint0_linear_2_126)"/>
<path d="M74.5416 130.02L76.2045 129.335L53.3026 73.771L51.6398 74.4564L74.5416 130.02Z" fill="#D6D8E1"/>
<path d="M6.26816 113.061C7.056 114.301 7.2663 115.795 7.57076 117.248C7.73963 118.27 8.08706 119.254 8.59715 120.155C9.26885 121.225 10.2952 121.997 11.2589 122.826C11.4346 122.98 11.6104 123.14 11.7799 123.29C11.9023 123.4 12.0247 123.52 12.1409 123.636C13.2708 124.781 14.1089 126.549 13.4278 127.977C13.4069 128.025 13.3827 128.073 13.3556 128.118C13.4107 128.155 13.4684 128.189 13.5282 128.218C14.3945 128.639 15.4837 127.967 16.1993 127.255C17.3419 126.112 18.3306 124.788 19.3695 123.535C20.556 122.104 21.8147 120.764 23.45 119.91C24.0537 119.601 24.684 119.347 25.3333 119.15C26.2969 118.837 27.295 118.614 28.2618 118.312C29.5896 117.888 30.8791 117.351 32.1162 116.708C34.263 115.559 36.3384 114.282 38.331 112.882L38.6261 112.681C39.2952 112.262 39.9162 111.77 40.478 111.216C40.5784 111.109 40.6757 110.999 40.7668 110.883C41.2501 110.255 41.5672 109.536 42.0223 108.893C42.4943 108.232 43.0863 107.665 43.7675 107.223C45.6884 105.945 48.2371 105.456 50.519 104.768H50.5441C54.6219 103.528 58.3377 101.317 61.373 98.3244C61.6246 98.1143 61.8126 97.8382 61.916 97.5272C62.0133 97.0846 61.7748 96.6452 61.5456 96.256C61.2788 95.7977 61.0183 95.3394 60.7609 94.8749C59.6034 92.7681 58.57 90.5955 57.6661 88.3682C57.4683 87.8785 57.2769 87.392 57.0917 86.8992C56.6167 85.6437 56.1835 84.3704 55.7922 83.0793C55.6635 82.6524 55.538 82.2224 55.4187 81.7924C55.3967 81.7108 55.3716 81.6229 55.3496 81.5287C54.8286 79.4351 54.1318 74.5354 51.9848 76.0013C51.3463 76.4578 50.7525 76.9738 50.2114 77.5424C49.794 77.9662 49.3859 78.4024 48.9559 78.823C48.6056 79.1675 48.2357 79.4914 47.8479 79.7929C47.4544 80.0943 47.0341 80.359 46.5924 80.5839C44.888 81.4565 43.0863 82.1878 41.4259 83.1232C40.5116 83.6229 39.653 84.2184 38.8646 84.8998C37.7692 85.8665 36.8401 87.0593 35.5626 87.7592L35.4245 87.8346C33.1709 88.9802 30.5186 88.2928 27.9542 88.2426C27.5773 88.2331 27.2001 88.2425 26.8242 88.2708C24.7432 88.4278 22.841 89.2627 21.0017 90.2828C19.7085 90.9985 18.4467 91.8083 17.1755 92.5396C16.372 93.001 15.5684 93.5001 14.7586 94.0117C12.7058 95.3049 10.6248 96.6609 8.48101 97.6402C6.28385 98.6383 4.01449 99.2347 1.61959 98.9616C1.41556 100.578 2.72131 101.884 3.5939 103.309C4.01299 103.921 4.26705 104.632 4.33151 105.371C4.34305 105.648 4.32304 105.925 4.27188 106.197C4.0961 107.198 3.64411 108.177 3.75711 109.185C3.84618 109.759 4.07824 110.302 4.43196 110.764C4.97811 111.545 5.74711 112.245 6.26816 113.061Z" fill="#F86D70"/>
<path d="M70.0833 119.598C70.0833 119.598 72.8328 121.996 75.6201 123.274C78.4074 124.551 76.5617 129.134 76.5617 129.134C76.5617 129.134 73.6081 129.812 71.5397 126.937C69.4712 124.061 70.0833 119.598 70.0833 119.598Z" fill="#FBBEBE"/>
<path d="M218.247 160.418C218.247 160.418 210.965 170.001 204.923 170.079C198.881 170.158 195.334 174.116 198.203 176.589C201.072 179.062 232.334 175.176 232.334 175.176C232.334 175.176 232.629 163.4 229.921 161.68C227.212 159.96 218.247 160.418 218.247 160.418Z" fill="#444176"/>
<path d="M296.545 171.922C296.545 171.922 297.659 179.512 294.216 184.688C290.773 189.863 300.437 191.86 300.437 191.86C300.437 191.86 307.458 193.815 307.97 186.878C308.482 179.942 308.315 174.637 307.656 174.072C306.997 173.507 306.448 169.606 306.448 169.606L296.545 171.922Z" fill="#444176"/>
<path d="M186.31 186.257C186.31 186.257 186.056 161.708 210.347 151.73L215.987 140.998L218.693 134.407C219.673 132.019 221.214 129.904 223.186 128.239C225.158 126.575 227.503 125.411 230.021 124.846L234.397 123.863L235.749 118.163C236.47 115.116 238.067 112.347 240.344 110.198C242.62 108.048 245.476 106.612 248.559 106.066C251.219 105.572 253.919 105.32 256.626 105.313C257.823 105.331 258.995 105.658 260.029 106.263C261.062 106.868 261.922 107.73 262.523 108.766C262.523 108.766 285.537 108.511 286.557 121.042C286.557 121.042 288.861 132.545 292.185 134.592C292.185 134.592 297.81 133.314 303.435 141.497L309.571 162.464C309.571 162.464 325.679 177.549 320.82 191.341C320.82 191.341 314.172 200.802 280.421 194.408C280.421 194.408 244.369 205.394 225.178 190.328C225.175 190.346 193.215 196.483 186.31 186.257Z" fill="#A8A8A8"/>
<path opacity="0.1" d="M202.418 182.422C202.418 182.422 207.535 175.263 207.277 170.146C207.02 165.03 208.483 152.569 208.483 152.569" stroke="black" stroke-width="0.313881" stroke-miterlimit="10"/>
<path opacity="0.1" d="M221.085 163.243C221.085 163.243 226.198 153.783 225.686 148.669C225.686 148.669 231.057 138.939 235.147 139.718" stroke="black" stroke-width="0.313881" stroke-miterlimit="10"/>
<path opacity="0.1" d="M249.212 136.394C249.212 136.394 263.274 131.28 264.043 127.191" stroke="black" stroke-width="0.313881" stroke-miterlimit="10"/>
<path opacity="0.1" d="M254.325 148.158C254.325 148.158 269.156 141.51 269.156 139.718H276.566C276.566 139.718 287.307 153.783 286.03 159.919" stroke="black" stroke-width="0.313881" stroke-miterlimit="10"/>
<path opacity="0.1" d="M271.714 158.384C271.714 158.384 257.395 157.361 252.278 161.454C247.162 165.547 237.959 167.59 237.959 167.59C237.959 167.59 232.589 179.097 230.542 181.141C228.496 183.184 225.172 190.347 225.172 190.347" stroke="black" stroke-width="0.313881" stroke-miterlimit="10"/>
<path opacity="0.1" d="M271.714 171.938C271.714 171.938 273.245 177.305 275.292 180.375C277.338 183.445 280.405 194.437 280.405 194.437" stroke="black" stroke-width="0.313881" stroke-miterlimit="10"/>
<path opacity="0.1" d="M295.748 187.534C295.748 187.534 298.993 196.564 301.846 196.652" stroke="black" stroke-width="0.313881" stroke-miterlimit="10"/>
<path opacity="0.1" d="M274.489 148.774C274.489 148.774 282.919 151.053 286.444 156.574C289.969 162.095 300.735 167.102 300.735 167.102" stroke="black" stroke-width="0.313881" stroke-miterlimit="10"/>
<path opacity="0.1" d="M278.104 121.572C278.104 121.572 278.104 133.333 281.428 133.333C284.752 133.333 292.169 134.611 292.169 134.611" stroke="black" stroke-width="0.313881" stroke-miterlimit="10"/>
<path opacity="0.1" d="M261.814 107.605C261.814 107.605 260.963 127.922 256.616 133.183" stroke="black" stroke-width="0.313881" stroke-miterlimit="10"/>
<g opacity="0.05">
<path opacity="0.05" d="M309.044 162.219L302.907 141.252C297.283 133.069 291.658 134.346 291.658 134.346C288.334 132.3 286.033 120.793 286.033 120.793C285.01 108.263 261.996 108.52 261.996 108.52C261.393 107.483 260.532 106.62 259.496 106.015C258.46 105.41 257.285 105.083 256.086 105.068C255 105.068 253.889 105.102 252.777 105.193C253.405 105.256 254.007 105.345 254.582 105.46L256.371 108.53C256.371 108.53 279.382 108.272 280.405 120.802C280.405 120.802 282.709 132.309 286.033 134.356C286.033 134.356 291.658 133.075 297.283 141.261L303.419 162.228C303.419 162.228 319.527 177.313 314.668 191.105C314.668 191.105 311.388 195.773 297.744 196.338C316.14 197.013 320.293 191.105 320.293 191.105C325.152 177.304 309.044 162.219 309.044 162.219Z" fill="black"/>
<path opacity="0.05" d="M219.038 190.089C213.626 191.063 208.152 191.662 202.657 191.881C209.063 192.126 215.727 191.432 220.021 190.842C219.688 190.588 219.362 190.343 219.038 190.089Z" fill="black"/>
<path opacity="0.05" d="M274.269 194.181C266.397 196.388 258.294 197.669 250.125 197.997C261.911 198.424 273.076 195.967 277.678 194.786C276.566 194.601 275.44 194.391 274.269 194.181Z" fill="black"/>
</g>
<path d="M69.9482 234.064C69.9482 234.064 76.9823 233.847 79.101 232.338C81.2197 230.828 89.9173 229.026 90.4446 231.446C90.972 233.866 101.013 243.484 93.0718 243.549C85.1306 243.615 74.6251 242.313 72.5095 241.023C70.394 239.733 69.9482 234.064 69.9482 234.064Z" fill="#A8A8A8"/>
<path opacity="0.2" d="M93.2162 242.706C85.275 242.771 74.7663 241.469 72.6507 240.194C71.0405 239.212 70.3971 235.69 70.1837 234.068H69.9482C69.9482 234.068 70.394 239.739 72.5095 241.026C74.6251 242.313 85.1338 243.616 93.0718 243.553C95.3663 243.534 96.1573 242.718 96.1133 241.51C95.7963 242.238 94.9206 242.693 93.2162 242.706Z" fill="black"/>
<path d="M241.434 216.425C241.434 216.425 233.15 214.767 230.944 212.558C228.737 210.348 218.797 206.487 217.692 209.246C216.587 212.005 202.786 221.393 212.171 223.057C221.556 224.72 234.255 225.254 237.017 224.162C239.78 223.069 241.434 216.425 241.434 216.425Z" fill="#A8A8A8"/>
<path opacity="0.2" d="M212.171 222.014C221.559 223.669 234.255 224.212 237.017 223.116C239.117 222.275 240.58 218.235 241.158 216.355L241.434 216.415C241.434 216.415 239.776 223.038 237.017 224.143C234.258 225.247 221.559 224.695 212.171 223.038C209.462 222.561 208.687 221.437 208.978 220.018C209.211 220.953 210.156 221.666 212.171 222.014Z" fill="black"/>
<path opacity="0.1" d="M162.119 36.0499H160.148C160.514 36.0499 160.866 35.9044 161.125 35.6454C161.384 35.3864 161.529 35.0351 161.529 34.6689C161.529 34.3026 161.384 33.9513 161.125 33.6923C160.866 33.4333 160.514 33.2878 160.148 33.2878L144.178 33.2878C143.812 33.2878 143.46 33.4333 143.201 33.6923C142.942 33.9513 142.797 34.3026 142.797 34.6689C142.797 35.0351 142.942 35.3864 143.201 35.6454C143.46 35.9044 143.812 36.0499 144.178 36.0499H146.149C145.795 36.0668 145.46 36.2196 145.215 36.4764C144.97 36.7333 144.834 37.0745 144.834 37.4294C144.834 37.7843 144.97 38.1256 145.215 38.3824C145.46 38.6393 145.795 38.792 146.149 38.8089H143.39C143.024 38.8089 142.672 38.9544 142.413 39.2134C142.154 39.4724 142.009 39.8237 142.009 40.19C142.009 40.5563 142.154 40.9076 142.413 41.1666C142.672 41.4256 143.024 41.5711 143.39 41.5711H159.36C159.727 41.5711 160.078 41.4256 160.337 41.1666C160.596 40.9076 160.741 40.5563 160.741 40.19C160.741 39.8237 160.596 39.4724 160.337 39.2134C160.078 38.9544 159.727 38.8089 159.36 38.8089H162.119C162.306 38.8178 162.492 38.7888 162.668 38.7235C162.843 38.6581 163.003 38.558 163.138 38.429C163.273 38.3 163.381 38.1449 163.455 37.9731C163.528 37.8013 163.566 37.6163 163.566 37.4294C163.566 37.2425 163.528 37.0576 163.455 36.8857C163.381 36.7139 163.273 36.5588 163.138 36.4299C163.003 36.3009 162.843 36.2007 162.668 36.1354C162.492 36.0701 162.306 36.041 162.119 36.0499Z" fill="#F03738"/>
<path opacity="0.1" d="M224.148 84.6411H222.177C222.532 84.6242 222.866 84.4715 223.111 84.2146C223.356 83.9577 223.492 83.6165 223.492 83.2616C223.492 82.9067 223.356 82.5654 223.111 82.3086C222.866 82.0517 222.532 81.899 222.177 81.8821H206.191C206.005 81.8732 205.818 81.9023 205.643 81.9676C205.468 82.0329 205.308 82.133 205.172 82.262C205.037 82.391 204.929 82.5461 204.856 82.7179C204.782 82.8897 204.744 83.0747 204.744 83.2616C204.744 83.4485 204.782 83.6335 204.856 83.8053C204.929 83.9771 205.037 84.1322 205.172 84.2612C205.308 84.3901 205.468 84.4903 205.643 84.5556C205.818 84.6209 206.005 84.65 206.191 84.6411H208.162C207.808 84.658 207.474 84.8107 207.229 85.0676C206.984 85.3244 206.847 85.6657 206.847 86.0206C206.847 86.3755 206.984 86.7167 207.229 86.9736C207.474 87.2305 207.808 87.3832 208.162 87.4001H205.403C205.037 87.4001 204.686 87.5456 204.427 87.8046C204.168 88.0636 204.022 88.4149 204.022 88.7812C204.022 89.1475 204.168 89.4987 204.427 89.7577C204.686 90.0167 205.037 90.1622 205.403 90.1622H221.371C221.737 90.1622 222.088 90.0167 222.347 89.7577C222.606 89.4987 222.752 89.1475 222.752 88.7812C222.752 88.4149 222.606 88.0636 222.347 87.8046C222.088 87.5456 221.737 87.4001 221.371 87.4001H224.148C224.335 87.409 224.522 87.3799 224.697 87.3146C224.872 87.2493 225.032 87.1491 225.167 87.0202C225.302 86.8912 225.41 86.7361 225.484 86.5643C225.557 86.3925 225.595 86.2075 225.595 86.0206C225.595 85.8337 225.557 85.6487 225.484 85.4769C225.41 85.3051 225.302 85.15 225.167 85.021C225.032 84.8921 224.872 84.7919 224.697 84.7266C224.522 84.6613 224.335 84.6322 224.148 84.6411Z" fill="#F03738"/>
<path opacity="0.1" d="M132.235 75.6524H130.264C130.45 75.6613 130.637 75.6322 130.812 75.5669C130.987 75.5016 131.147 75.4014 131.282 75.2724C131.418 75.1435 131.525 74.9884 131.599 74.8166C131.673 74.6447 131.71 74.4598 131.71 74.2729C131.71 74.086 131.673 73.901 131.599 73.7292C131.525 73.5574 131.418 73.4023 131.282 73.2733C131.147 73.1443 130.987 73.0442 130.812 72.9789C130.637 72.9135 130.45 72.8845 130.264 72.8934H114.29C114.104 72.8845 113.917 72.9135 113.742 72.9789C113.567 73.0442 113.407 73.1443 113.271 73.2733C113.136 73.4023 113.028 73.5574 112.955 73.7292C112.881 73.901 112.843 74.086 112.843 74.2729C112.843 74.4598 112.881 74.6447 112.955 74.8166C113.028 74.9884 113.136 75.1435 113.271 75.2724C113.407 75.4014 113.567 75.5016 113.742 75.5669C113.917 75.6322 114.104 75.6613 114.29 75.6524H116.261C116.075 75.6435 115.888 75.6725 115.713 75.7379C115.538 75.8032 115.378 75.9033 115.243 76.0323C115.107 76.1613 115 76.3164 114.926 76.4882C114.852 76.66 114.814 76.845 114.814 77.0319C114.814 77.2188 114.852 77.4038 114.926 77.5756C115 77.7474 115.107 77.9025 115.243 78.0314C115.378 78.1604 115.538 78.2606 115.713 78.3259C115.888 78.3912 116.075 78.4203 116.261 78.4114H113.499C113.133 78.4114 112.782 78.5569 112.523 78.8159C112.264 79.0749 112.118 79.4262 112.118 79.7925C112.118 80.1587 112.264 80.51 112.523 80.769C112.782 81.028 113.133 81.1735 113.499 81.1735H129.469C129.836 81.1735 130.187 81.028 130.446 80.769C130.705 80.51 130.851 80.1587 130.851 79.7925C130.851 79.4262 130.705 79.0749 130.446 78.8159C130.187 78.5569 129.836 78.4114 129.469 78.4114H132.228C132.415 78.4203 132.602 78.3912 132.777 78.3259C132.952 78.2606 133.112 78.1604 133.247 78.0314C133.383 77.9025 133.49 77.7474 133.564 77.5756C133.637 77.4038 133.675 77.2188 133.675 77.0319C133.675 76.845 133.637 76.66 133.564 76.4882C133.49 76.3164 133.383 76.1613 133.247 76.0323C133.112 75.9033 132.952 75.8032 132.777 75.7379C132.602 75.6725 132.415 75.6435 132.228 75.6524H132.235Z" fill="#F03738"/>
</g>
<defs>
<linearGradient id="paint0_linear_2_126" x1="-227644" y1="20570.9" x2="-245992" y2="20570.9" gradientUnits="userSpaceOnUse">
<stop stop-color="#808080" stop-opacity="0.25"/>
<stop offset="0.54" stop-color="#808080" stop-opacity="0.12"/>
<stop offset="1" stop-color="#808080" stop-opacity="0.1"/>
</linearGradient>
<clipPath id="clip0_2_126">
<rect y="-0.00012207" width="324" height="261.346" fill="white"/>
</clipPath>
</defs>
</svg>
