<svg width="311" height="173" viewBox="0 0 311 173" fill="none" xmlns="http://www.w3.org/2000/svg">
<g clip-path="url(#clip0_2_92)">
<path d="M160.031 171.15C155.115 171.874 150.139 172.115 145.175 171.868C133.207 171.263 121.436 167.782 111.377 161.237C106.917 158.335 102.663 154.769 100.354 149.98C97.2211 143.475 98.3169 135.241 102.791 129.576C104.423 127.532 106.431 125.819 108.706 124.53C109.043 124.339 109.387 124.156 109.736 123.98C113.526 122.074 117.784 121.294 122.005 121.734C129.18 122.518 135.801 126.901 139.627 133.024C143.035 138.484 144.223 144.926 144.923 151.383C145.054 152.6 145.168 153.82 145.278 155.033C144.668 158.547 143.709 161.992 142.416 165.316C142.35 165.478 142.296 165.644 142.255 165.814C142.988 167.405 143.685 169.01 144.347 170.629C144.969 170.967 145.666 171.144 146.374 171.142H160.002L160.031 171.15Z" fill="#F2F2F2"/>
<path d="M144.065 171.461C143.975 171.501 143.877 171.523 143.778 171.525C143.679 171.528 143.581 171.51 143.489 171.474C143.397 171.438 143.313 171.384 143.242 171.315C143.171 171.246 143.114 171.163 143.076 171.072C143.017 170.933 142.962 170.794 142.903 170.655C142.376 169.372 141.822 168.102 141.243 166.844C133.831 150.608 122.774 136.299 108.933 125.031C108.854 124.975 108.791 124.9 108.751 124.811C108.711 124.723 108.695 124.625 108.706 124.529C108.726 124.419 108.771 124.314 108.837 124.224C108.903 124.133 108.989 124.058 109.088 124.005C109.187 123.953 109.297 123.923 109.409 123.918C109.521 123.914 109.633 123.935 109.736 123.979C109.791 124.004 109.843 124.037 109.89 124.075C115.811 128.898 121.244 134.293 126.109 140.18C130.974 146.063 135.259 152.403 138.902 159.111C139.895 160.944 140.838 162.802 141.731 164.685C141.907 165.059 142.083 165.436 142.255 165.814C142.988 167.404 143.685 169.009 144.347 170.629C144.358 170.655 144.369 170.684 144.38 170.71C144.414 170.779 144.432 170.855 144.435 170.932C144.437 171.009 144.422 171.085 144.393 171.157C144.363 171.228 144.318 171.292 144.262 171.344C144.205 171.397 144.138 171.436 144.065 171.461Z" fill="white"/>
<path d="M95.4622 123.129C103.355 123.129 109.754 116.731 109.754 108.838C109.754 100.945 103.355 94.546 95.4622 94.546C87.5691 94.546 81.1705 100.945 81.1705 108.838C81.1705 116.731 87.5691 123.129 95.4622 123.129Z" fill="#3E66FB"/>
<path d="M94.0456 114.289C93.7241 114.289 93.411 114.185 93.1538 113.993L93.1378 113.981L89.7792 111.409C89.6235 111.29 89.4929 111.141 89.3947 110.972C89.2965 110.802 89.2327 110.615 89.2069 110.42C89.1812 110.226 89.1939 110.029 89.2445 109.839C89.2951 109.65 89.3825 109.472 89.5017 109.317C89.6209 109.161 89.7696 109.03 89.9393 108.932C90.109 108.834 90.2963 108.771 90.4907 108.745C90.685 108.719 90.8825 108.732 91.0718 108.783C91.2612 108.833 91.4387 108.921 91.5942 109.04L93.7697 110.708L98.9107 104.004C99.0299 103.848 99.1786 103.718 99.3483 103.62C99.5179 103.522 99.7053 103.458 99.8995 103.432C100.094 103.407 100.291 103.419 100.481 103.47C100.67 103.521 100.847 103.608 101.003 103.727L100.971 103.771L101.004 103.728C101.317 103.969 101.523 104.325 101.574 104.717C101.626 105.109 101.52 105.506 101.28 105.82L95.2327 113.706C95.0929 113.888 94.913 114.035 94.7072 114.136C94.5013 114.237 94.2749 114.289 94.0456 114.289Z" fill="white"/>
<path d="M90.1958 100.441C90.4637 99.9315 90.6168 99.3696 90.6441 98.7948C90.6714 98.2199 90.5723 97.646 90.3539 97.1136C90.1354 96.5811 89.8029 96.1031 89.3797 95.7131C88.9565 95.323 88.4529 95.0306 87.9044 94.8562L72.5807 62.4401L65.5712 67.3553L82.838 97.6738C82.6062 98.6146 82.7275 99.6078 83.179 100.465C83.6306 101.322 84.3809 101.984 85.2878 102.325C86.1948 102.666 87.1953 102.663 88.0999 102.316C89.0044 101.968 89.7502 101.301 90.1958 100.441V100.441Z" fill="#FFB8B8"/>
<path d="M76.0948 67.8478L67.9564 71.487C67.7248 71.5905 67.4737 71.6429 67.22 71.6406C66.9664 71.6384 66.7162 71.5815 66.4865 71.4738C66.2569 71.3661 66.0531 71.2102 65.8891 71.0167C65.7252 70.8231 65.6048 70.5965 65.5363 70.3523L63.1363 61.7945C62.6133 60.6067 62.5826 59.2601 63.051 58.0497C63.5194 56.8394 64.4485 55.8642 65.6348 55.3379C66.8211 54.8116 68.1677 54.7772 69.3793 55.2422C70.5909 55.7072 71.5687 56.6337 72.0983 57.8185L76.8627 65.2876C76.999 65.5015 77.0877 65.7422 77.1226 65.9935C77.1575 66.2447 77.1378 66.5005 77.065 66.7435C76.9921 66.9865 76.8677 67.2108 76.7003 67.4014C76.5329 67.592 76.3264 67.7442 76.0948 67.8478Z" fill="#CCCCCC"/>
<path d="M38.5086 103.654C39.0692 103.524 39.5944 103.272 40.0473 102.917C40.5002 102.562 40.8697 102.112 41.1298 101.599C41.3899 101.085 41.5342 100.521 41.5527 99.9457C41.5712 99.3705 41.4633 98.7982 41.2367 98.2692L55.7491 65.4819L47.4472 63.3909L35.7925 96.2773C34.929 96.7169 34.2568 97.458 33.9032 98.3601C33.5496 99.2623 33.5392 100.263 33.874 101.172C34.2088 102.081 34.8655 102.836 35.7197 103.294C36.5739 103.751 37.5662 103.879 38.5086 103.654H38.5086Z" fill="#FFB8B8"/>
<path d="M34.5526 163.084L38.7741 164.621L46.7118 149.07L40.481 146.801L34.5526 163.084Z" fill="#FFB8B8"/>
<path d="M45.4883 171.506L32.2206 166.675L34.0871 161.549L42.2286 164.513C43.5881 165.008 44.6953 166.023 45.3066 167.334C45.9179 168.646 45.9833 170.146 45.4883 171.506Z" fill="#2F2E41"/>
<path d="M44.5379 154.135C44.2789 154.135 44.0231 154.078 43.7889 153.967L38.9373 151.669C38.5396 151.482 38.2262 151.153 38.0587 150.747C37.8913 150.341 37.8821 149.887 38.0328 149.474L51.7248 111.558C51.8382 111.244 52.0384 110.968 52.302 110.763C52.5656 110.559 52.882 110.433 53.2143 110.4C53.5466 110.368 53.8812 110.431 54.1793 110.581C54.4775 110.731 54.7269 110.963 54.8986 111.249L62.1406 123.319C62.3017 123.588 62.3884 123.895 62.3918 124.209C62.3951 124.522 62.315 124.831 62.1596 125.103L46.077 153.248C45.9212 153.518 45.6968 153.742 45.4266 153.898C45.1564 154.054 44.8499 154.136 44.5379 154.135Z" fill="#2F2E41"/>
<path d="M73.7343 82.6663L57.798 78.2837L49.3221 61.332C48.9149 60.5177 48.7227 59.6127 48.7636 58.7031C48.8045 57.7936 49.0773 56.9096 49.5559 56.1351C50.0346 55.3605 50.7033 54.7213 51.4986 54.2779C52.2938 53.8345 53.1892 53.6018 54.0997 53.6018H66.7788C68.0949 53.601 69.3648 54.0867 70.3444 54.9655C73.7456 58.0124 80.8913 66.7964 73.8033 82.5131L73.7343 82.6663Z" fill="#CCCCCC"/>
<path d="M53.7845 71.3459L45.7103 67.5664C45.4806 67.4589 45.2767 67.3031 45.1126 67.1097C44.9485 66.9163 44.828 66.6897 44.7594 66.4455C44.6907 66.2014 44.6755 65.9452 44.7147 65.6946C44.754 65.444 44.8468 65.2048 44.9868 64.9933L49.8938 57.5827C50.4507 56.4105 51.4497 55.507 52.6717 55.0702C53.8938 54.6334 55.2391 54.6991 56.4129 55.2527C57.5866 55.8063 58.4929 56.8027 58.9331 58.0235C59.3734 59.2443 59.3115 60.5898 58.7613 61.7651L56.2239 70.2533C56.1511 70.4963 56.0269 70.7207 55.8596 70.9114C55.6923 71.1021 55.4859 71.2544 55.2544 71.3581C55.0229 71.4618 54.7718 71.5144 54.5181 71.5123C54.2645 71.5102 54.0143 71.4534 53.7845 71.3459Z" fill="#CCCCCC"/>
<path d="M63.5533 167.334H68.0456L70.1832 150.005L63.5522 150.006L63.5533 167.334Z" fill="#FFB8B8"/>
<path d="M76.7103 171.506L62.5906 171.506L62.5904 166.051L71.2547 166.051C72.7016 166.051 74.0892 166.625 75.1123 167.648C76.1354 168.671 76.7103 170.059 76.7103 171.506Z" fill="#2F2E41"/>
<path d="M65.2495 160.731C64.8456 160.731 64.4538 160.593 64.1402 160.338C63.8266 160.083 63.6104 159.728 63.528 159.333C62.2366 153.248 55.5297 122.082 50.2949 106.029C44.9688 89.696 54.0395 82.2566 55.9119 80.9312C56.1113 80.7903 56.2697 80.599 56.371 80.3769L57.7313 77.3844C57.8724 77.0755 58.0992 76.8136 58.3849 76.6299C58.6706 76.4463 59.0031 76.3486 59.3427 76.3486H59.3537C69.5516 76.4095 72.9799 79.6242 73.9805 81.0036C74.128 81.209 74.2292 81.4441 74.2769 81.6926C74.3246 81.941 74.3177 82.1969 74.2566 82.4424L67.8042 109.063C67.7642 109.228 67.7552 109.399 67.7775 109.568L74.1971 157.903C74.228 158.135 74.2123 158.371 74.1509 158.598C74.0895 158.824 73.9837 159.035 73.8397 159.22C73.6957 159.405 73.5163 159.56 73.3119 159.674C73.1076 159.789 72.8825 159.862 72.6497 159.889L65.4567 160.719C65.3879 160.727 65.3188 160.731 65.2495 160.731Z" fill="#2F2E41"/>
<path d="M216.758 75.1239C219.389 75.1239 221.522 72.9911 221.522 70.36C221.522 67.729 219.389 65.5962 216.758 65.5962C214.127 65.5962 211.994 67.729 211.994 70.36C211.994 72.9911 214.127 75.1239 216.758 75.1239Z" fill="#3E66FB"/>
<path d="M216.286 72.1771C216.179 72.1773 216.075 72.1426 215.989 72.0783L215.984 72.0743L214.864 71.2172C214.812 71.1775 214.768 71.128 214.735 71.0714C214.703 71.0148 214.681 70.9523 214.672 70.8875C214.664 70.8226 214.668 70.7567 214.685 70.6935C214.702 70.6303 214.731 70.571 214.771 70.5191C214.81 70.4671 214.86 70.4236 214.917 70.3909C214.973 70.3581 215.036 70.3369 215.101 70.3284C215.166 70.3199 215.232 70.3243 215.295 70.3413C215.358 70.3583 215.417 70.3876 215.469 70.4275L216.194 70.9836L217.908 68.7487C217.948 68.6969 217.997 68.6534 218.054 68.6207C218.11 68.588 218.173 68.5668 218.237 68.5582C218.302 68.5497 218.368 68.554 218.431 68.5709C218.494 68.5877 218.553 68.6169 218.605 68.6566L218.594 68.6711L218.605 68.6569C218.71 68.7372 218.778 68.8558 218.796 68.9865C218.813 69.1172 218.778 69.2495 218.697 69.3542L216.682 71.983C216.635 72.0435 216.575 72.0925 216.507 72.1262C216.438 72.1599 216.363 72.1773 216.286 72.1771Z" fill="white"/>
<path d="M216.758 89.0487C219.389 89.0487 221.522 86.9158 221.522 84.2848C221.522 81.6538 219.389 79.5209 216.758 79.5209C214.127 79.5209 211.994 81.6538 211.994 84.2848C211.994 86.9158 214.127 89.0487 216.758 89.0487Z" fill="#3E66FB"/>
<path d="M216.286 86.1018C216.179 86.102 216.075 86.0674 215.989 86.0031L215.984 85.9991L214.864 85.1419C214.812 85.1022 214.768 85.0527 214.735 84.9961C214.703 84.9396 214.681 84.8771 214.672 84.8122C214.664 84.7474 214.668 84.6815 214.685 84.6182C214.702 84.555 214.731 84.4957 214.771 84.4438C214.81 84.3919 214.86 84.3483 214.917 84.3156C214.973 84.2829 215.036 84.2617 215.101 84.2532C215.166 84.2447 215.232 84.249 215.295 84.266C215.358 84.283 215.417 84.3124 215.469 84.3523L216.194 84.9083L217.908 82.6734C217.948 82.6216 217.997 82.5781 218.054 82.5454C218.11 82.5127 218.173 82.4915 218.237 82.483C218.302 82.4744 218.368 82.4787 218.431 82.4956C218.494 82.5125 218.553 82.5416 218.605 82.5814L218.594 82.5958L218.605 82.5816C218.71 82.662 218.778 82.7805 218.796 82.9112C218.813 83.042 218.778 83.1742 218.697 83.279L216.682 85.9077C216.635 85.9683 216.575 86.0173 216.507 86.051C216.438 86.0846 216.363 86.102 216.286 86.1018Z" fill="white"/>
<path d="M219.324 105.173C221.955 105.173 224.087 103.04 224.087 100.409C224.087 97.7784 221.955 95.6455 219.324 95.6455C216.692 95.6455 214.56 97.7784 214.56 100.409C214.56 103.04 216.692 105.173 219.324 105.173Z" fill="#3E66FB"/>
<path d="M218.851 102.226C218.744 102.227 218.64 102.192 218.554 102.128L218.549 102.124L217.429 101.267C217.377 101.227 217.333 101.177 217.301 101.121C217.268 101.064 217.246 101.002 217.238 100.937C217.229 100.872 217.233 100.806 217.25 100.743C217.267 100.68 217.296 100.62 217.336 100.568C217.376 100.517 217.425 100.473 217.482 100.44C217.539 100.408 217.601 100.386 217.666 100.378C217.731 100.369 217.797 100.374 217.86 100.391C217.923 100.408 217.982 100.437 218.034 100.477L218.759 101.033L220.473 98.7981C220.513 98.7462 220.562 98.7027 220.619 98.67C220.675 98.6374 220.738 98.6161 220.803 98.6076C220.867 98.599 220.933 98.6033 220.996 98.6202C221.059 98.6371 221.119 98.6663 221.17 98.706L221.16 98.7205L221.171 98.7062C221.275 98.7866 221.344 98.9051 221.361 99.0359C221.378 99.1666 221.343 99.2988 221.263 99.4036L219.247 102.032C219.2 102.093 219.14 102.142 219.072 102.176C219.003 102.209 218.928 102.227 218.851 102.226Z" fill="white"/>
<path d="M265.261 140.183C265.211 140.183 265.18 140.182 265.169 140.181L259.255 140.182V139.31H265.191C265.328 139.314 268.132 139.394 270.715 136.259C274.565 131.587 277.727 120.021 270.925 91.4548C261.78 53.043 269.408 19.1082 273.112 6.30128C273.294 5.66767 273.327 5.0003 273.207 4.3519C273.087 3.7035 272.818 3.09184 272.421 2.56525C272.025 2.03865 271.511 1.61155 270.921 1.31769C270.33 1.02384 269.68 0.871274 269.02 0.872057H180.693C180.021 0.872958 179.359 1.03218 178.761 1.33681C178.162 1.64143 177.644 2.08288 177.248 2.62531C175.679 4.78372 173.526 8.93021 172.178 16.4278L171.32 16.2736C172.697 8.61319 174.92 4.34471 176.543 2.11263C177.02 1.45903 177.644 0.9271 178.365 0.560027C179.086 0.192954 179.883 0.00108566 180.693 2.37338e-06H269.02C269.815 -0.000762294 270.599 0.183257 271.31 0.537521C272.021 0.891785 272.64 1.40659 273.118 2.04126C273.597 2.67593 273.92 3.41307 274.065 4.19446C274.209 4.97584 274.169 5.78006 273.949 6.54356C270.264 19.2841 262.676 53.0428 271.774 91.253C278.671 120.221 275.355 132.037 271.359 136.849C268.724 140.022 265.82 140.183 265.261 140.183Z" fill="#E6E6E6"/>
<path d="M249.346 156.098C249.296 156.098 249.265 156.097 249.254 156.097L243.34 156.097V155.225H249.276C249.414 155.229 252.217 155.309 254.801 152.174C258.651 147.503 261.812 135.937 255.011 107.37C245.865 68.9585 253.493 35.0238 257.197 22.2168C257.379 21.5832 257.412 20.9158 257.292 20.2674C257.172 19.619 256.903 19.0074 256.507 18.4808C256.11 17.9542 255.596 17.5271 255.006 17.2332C254.415 16.9394 253.765 16.7868 253.106 16.7876H164.778C164.106 16.7885 163.444 16.9477 162.846 17.2523C162.247 17.557 161.729 17.9984 161.333 18.5408C159.764 20.6993 157.611 24.8457 156.263 32.3433L155.405 32.1892C156.782 24.5287 159.005 20.2602 160.628 18.0282C161.105 17.3746 161.729 16.8426 162.45 16.4756C163.171 16.1085 163.969 15.9166 164.778 15.9155H253.106C253.9 15.9148 254.684 16.0988 255.395 16.4531C256.106 16.8073 256.726 17.3221 257.204 17.9568C257.682 18.5915 258.006 19.3286 258.15 20.11C258.294 20.8914 258.255 21.6956 258.035 22.4591C254.35 35.1996 246.761 68.9583 255.859 107.169C262.756 136.137 259.44 147.953 255.444 152.764C252.809 155.938 249.905 156.098 249.346 156.098Z" fill="#CCCCCC"/>
<path d="M239.944 123.085C230.845 84.8752 238.434 51.1139 242.121 38.3759C242.34 37.6124 242.379 36.8083 242.235 36.0271C242.09 35.2458 241.766 34.5088 241.288 33.8742C240.811 33.2396 240.192 32.7247 239.481 32.3701C238.77 32.0155 237.986 31.831 237.192 31.8311H148.862C148.053 31.8319 147.256 32.0234 146.535 32.3902C145.814 32.7569 145.19 33.2886 144.714 33.9418C141.148 38.845 133.749 55.1045 142.013 100.094C146.432 124.163 146.366 140.572 144.923 151.383C144.113 157.47 142.863 161.779 141.731 164.685L141.61 164.993C141.371 165.581 141.247 166.209 141.243 166.844C141.235 167.56 141.379 168.27 141.665 168.927C141.951 169.584 142.373 170.173 142.903 170.655C143.249 170.979 143.64 171.25 144.065 171.461C144.417 171.641 144.79 171.777 145.175 171.868C145.568 171.963 145.97 172.011 146.374 172.01H233.34C233.351 172.01 233.381 172.014 233.432 172.014C233.989 172.014 236.895 171.853 239.53 168.679C243.524 163.868 246.84 152.053 239.944 123.085ZM238.885 168.089C236.301 171.226 233.498 171.146 233.362 171.142H146.374C145.677 171.142 144.991 170.971 144.376 170.645C143.761 170.318 143.235 169.846 142.845 169.269C142.501 168.771 142.27 168.203 142.168 167.607C142.067 167.01 142.096 166.398 142.255 165.814C142.296 165.644 142.35 165.477 142.416 165.315C143.709 161.991 144.668 158.547 145.278 155.033C147.345 143.764 147.729 126.376 142.87 99.9364C134.669 55.2804 141.921 39.2664 145.417 34.4549C145.814 33.9132 146.332 33.4725 146.931 33.1682C147.529 32.8639 148.191 32.7046 148.862 32.7032H237.192C237.851 32.7028 238.501 32.8555 239.091 33.1493C239.681 33.4432 240.194 33.8701 240.591 34.3964C240.987 34.9227 241.256 35.534 241.376 36.182C241.496 36.83 241.463 37.497 241.281 38.1304C237.577 50.938 229.951 84.8752 239.097 123.287C245.899 151.852 242.736 163.417 238.885 168.089Z" fill="#3F3D56"/>
<path d="M197.981 73.4377H152.473C151.548 73.4377 150.66 73.0702 150.006 72.416C149.352 71.7619 148.984 70.8746 148.984 69.9495C148.984 69.0244 149.352 68.1372 150.006 67.483C150.66 66.8288 151.548 66.4613 152.473 66.4613H197.981C198.906 66.4613 199.793 66.8288 200.448 67.483C201.102 68.1372 201.469 69.0244 201.469 69.9495C201.469 70.8746 201.102 71.7619 200.448 72.416C199.793 73.0702 198.906 73.4377 197.981 73.4377Z" fill="#CCCCCC"/>
<path d="M197.981 88.4619H152.473C151.548 88.4619 150.66 88.0944 150.006 87.4403C149.352 86.7861 148.984 85.8989 148.984 84.9737C148.984 84.0486 149.352 83.1614 150.006 82.5072C150.66 81.8531 151.548 81.4855 152.473 81.4855H197.981C198.906 81.4855 199.793 81.8531 200.448 82.5072C201.102 83.1614 201.469 84.0486 201.469 84.9737C201.469 85.8989 201.102 86.7861 200.448 87.4403C199.793 88.0944 198.906 88.4619 197.981 88.4619Z" fill="#CCCCCC"/>
<path d="M201.646 103.854H156.137C155.212 103.854 154.325 103.486 153.671 102.832C153.016 102.178 152.649 101.291 152.649 100.366C152.649 99.4405 153.016 98.5533 153.671 97.8991C154.325 97.245 155.212 96.8775 156.137 96.8775H201.646C202.571 96.8775 203.458 97.245 204.112 97.8991C204.766 98.5533 205.134 99.4405 205.134 100.366C205.134 101.291 204.766 102.178 204.112 102.832C203.458 103.486 202.571 103.854 201.646 103.854Z" fill="#CCCCCC"/>
<path d="M204.211 119.978H158.702C157.777 119.978 156.89 119.61 156.236 118.956C155.582 118.302 155.214 117.415 155.214 116.489C155.214 115.564 155.582 114.677 156.236 114.023C156.89 113.369 157.777 113.001 158.702 113.001H204.211C205.136 113.001 206.023 113.369 206.677 114.023C207.331 114.677 207.699 115.564 207.699 116.489C207.699 117.415 207.331 118.302 206.677 118.956C206.023 119.61 205.136 119.978 204.211 119.978Z" fill="#CCCCCC"/>
<path d="M204.23 46.3543H171.528C171.07 46.3547 170.616 46.2649 170.192 46.0898C169.769 45.9147 169.384 45.6578 169.059 45.3339C168.735 45.0099 168.478 44.6252 168.302 44.2018C168.127 43.7783 168.036 43.3245 168.036 42.8661C168.036 42.4077 168.127 41.9538 168.302 41.5304C168.478 41.1069 168.735 40.7222 169.059 40.3983C169.384 40.0743 169.769 39.8175 170.192 39.6424C170.616 39.4673 171.07 39.3774 171.528 39.3779H204.23C205.155 39.3779 206.042 39.7454 206.697 40.3996C207.351 41.0537 207.718 41.941 207.718 42.8661C207.718 43.7912 207.351 44.6784 206.697 45.3326C206.042 45.9868 205.155 46.3543 204.23 46.3543Z" fill="#3E66FB"/>
<path d="M222.255 121.254C224.886 121.254 227.019 119.121 227.019 116.49C227.019 113.859 224.886 111.726 222.255 111.726C219.624 111.726 217.491 113.859 217.491 116.49C217.491 119.121 219.624 121.254 222.255 121.254Z" fill="#CCCCCC"/>
<path d="M206.409 135.735H160.901C159.976 135.735 159.089 135.368 158.435 134.714C157.78 134.06 157.413 133.172 157.413 132.247C157.413 131.322 157.78 130.435 158.435 129.781C159.089 129.127 159.976 128.759 160.901 128.759H206.409C207.335 128.759 208.222 129.127 208.876 129.781C209.53 130.435 209.898 131.322 209.898 132.247C209.898 133.172 209.53 134.06 208.876 134.714C208.222 135.368 207.335 135.735 206.409 135.735Z" fill="#CCCCCC"/>
<path d="M224.454 137.011C227.085 137.011 229.218 134.878 229.218 132.247C229.218 129.616 227.085 127.483 224.454 127.483C221.823 127.483 219.69 129.616 219.69 132.247C219.69 134.878 221.823 137.011 224.454 137.011Z" fill="#CCCCCC"/>
<path opacity="0.1" d="M68.8534 44.1576C68.8538 46.1571 68.0971 48.0813 66.7381 49.5366C65.3792 50.9919 63.5205 51.8684 61.5423 51.9869C59.5641 52.1054 57.6158 51.4569 56.0957 50.1741C54.5756 48.8912 53.5986 47.0709 53.3645 45.0854C53.1304 43.0998 53.6569 41.099 54.8362 39.4921C56.0156 37.8853 57.7588 36.7937 59.7094 36.4406C61.6599 36.0875 63.6705 36.4995 65.3299 37.5925C66.9893 38.6855 68.1723 40.3768 68.6369 42.3207C68.7809 42.9222 68.8536 43.5388 68.8534 44.1576Z" fill="black"/>
<path d="M48.2057 39.8977C48.1578 40.7876 48.6105 41.6009 48.8761 42.4525C49.3153 44.0973 49.2716 45.8299 48.7498 47.4514C48.2623 49.1547 47.444 50.9558 48.0664 52.6207C48.2101 53.0124 48.4277 53.3701 48.5583 53.7618C49.0981 55.3799 48.0969 57.0831 47 58.4074L51.3049 61.3582C51.9335 61.8678 52.6812 62.2174 53.4814 62.3759C54.2866 62.4695 55.2225 62.048 55.3879 61.273C55.4445 61.009 55.3879 60.7323 55.4401 60.464C55.4931 60.1171 55.6302 59.7877 55.84 59.5032C56.0497 59.2187 56.3261 58.9875 56.6459 58.8289C57.2925 58.5187 58.0135 58.3877 58.7309 58.4499C61.373 58.5905 63.6191 60.2894 66.0219 61.3795C67.606 62.0505 69.2476 62.5834 70.9275 62.972C71.8808 63.2147 72.9385 63.4361 73.8004 62.972C74.6622 62.5079 75.0584 61.4306 74.9931 60.4555C74.8593 59.4857 74.5497 58.547 74.079 57.6835C73.6039 56.821 73.3178 55.8712 73.2389 54.8945C73.2389 53.4638 74.0398 52.1608 74.3097 50.7557C74.6884 48.7587 73.9179 46.7276 72.9777 44.9136C72.0375 43.0997 70.897 41.3539 70.44 39.3782C70.3493 38.7793 70.1901 38.1923 69.9655 37.6282C69.7477 37.1997 69.4528 36.8132 69.095 36.487C67.4801 34.9243 65.1774 34.1834 62.9227 34.0216C60.6679 33.8598 58.3914 34.2217 56.154 34.6007C55.3004 34.7199 54.4597 34.9151 53.6424 35.184C52.4745 35.6381 51.3656 36.2255 50.3386 36.9341C49.3201 37.6239 48.271 38.633 48.2057 39.8977Z" fill="#464353"/>
<path d="M72 40.5386C72.0005 43.2401 70.9295 45.8398 69.006 47.806C67.0825 49.7722 64.4518 50.9564 61.6519 51.1165C58.8519 51.2766 56.0943 50.4005 53.9427 48.6673C51.7912 46.9341 50.4084 44.4747 50.0771 41.7921C49.7457 39.1095 50.4909 36.4064 52.1601 34.2354C53.8294 32.0644 56.2967 30.5895 59.0575 30.1125C61.8183 29.6354 64.664 30.1922 67.0128 31.6689C69.3616 33.1455 71.0359 35.4306 71.6935 38.0569C71.8974 38.8695 72.0003 39.7026 72 40.5386Z" fill="#FBBEBE"/>
<path d="M73 60.1953C71.6712 60.286 70.3387 60.0814 69.0999 59.5964C67.861 59.1115 66.7471 58.3583 65.8394 57.3921C65.6866 57.2541 65.5761 57.0762 65.5208 56.8788C65.4955 56.6222 65.5682 56.3655 65.7244 56.1594C66.2555 55.3478 67.1715 54.8126 67.5964 53.9396C68.0212 53.0666 67.8752 52.062 67.915 51.1057C67.9858 49.3905 68.6674 47.6927 68.7249 46.0038C68.7454 45.5716 68.7127 45.1385 68.6276 44.7141C68.4239 44.0838 68.299 43.4311 68.2558 42.7707C68.3133 41.4853 69.4817 40.4851 69.6764 39.2173C69.9287 37.603 68.5789 36.1992 67.2202 35.2692C66.1842 34.557 65.0596 33.9804 63.8745 33.5539C63.1465 33.2955 62.3929 33.1146 61.6263 33.0143C60.1971 32.8229 58.7423 32.9842 57.391 33.4837C56.8318 33.6929 56.3022 33.9731 55.8155 34.3172C55.5257 34.4989 55.2843 34.7472 55.1119 35.0411C54.97 35.3719 54.9064 35.7306 54.926 36.0895C54.8995 37.8837 55.103 39.792 54.24 41.3537C53.7975 42.1916 53.0451 42.8716 52.6778 43.7577C52.5275 44.1264 52.4335 44.5153 52.399 44.9115C52.3547 45.3224 52.3326 45.7353 52.3326 46.1486C52.3061 48.4604 52.3326 50.8995 53.5187 52.9043C53.9372 53.5104 54.3171 54.1419 54.6561 54.7951C54.8204 55.1255 54.8966 55.4921 54.8772 55.86C54.8578 56.2279 54.7436 56.5847 54.5454 56.8964C54.3058 57.1807 54.0028 57.406 53.6603 57.5544C52.7816 57.9723 51.8254 58.206 50.8514 58.2407C49.8774 58.2754 48.9067 58.1105 48 57.7562C49.0603 56.7602 49.7886 55.4671 50.0876 54.0498C50.3865 52.6324 50.2418 51.1584 49.6729 49.8247C49.3532 49.2861 49.1455 48.6895 49.0621 48.07C49.1065 47.512 49.2567 46.9673 49.5047 46.4644C50.1113 44.816 50.2054 43.025 49.7747 41.323C49.5047 40.279 49.0356 39.27 48.9515 38.1952C48.8813 37.384 48.917 36.5671 49.0577 35.7649C49.3003 34.3296 49.9382 32.9887 50.9011 31.8902C51.8641 30.7917 53.1145 29.9784 54.5144 29.54C54.7401 29.4654 54.957 29.3952 55.2048 29.3338C56.2785 29.0975 57.3755 28.9813 58.4753 28.9872C60.9315 28.9083 63.4231 28.8381 65.7908 29.4742C67.1808 29.835 68.474 30.4939 69.5791 31.4044C70.3635 32.058 70.9896 32.8781 71.4112 33.804C71.6416 34.3373 71.8151 34.8931 71.929 35.4622C72.0308 35.9316 72.106 36.4054 72.1813 36.8792C72.7168 40.2526 73.2523 43.6919 72.6814 47.061C72.4557 48.3771 72.0618 49.6931 71.8848 51.0355C71.4555 54.1282 72.23 57.2034 73 60.1953Z" fill="#464353"/>
</g>
<defs>
<clipPath id="clip0_2_92">
<rect width="311" height="172.029" fill="white"/>
</clipPath>
</defs>
</svg>
