<svg width="32" height="33" viewBox="0 0 32 33" fill="none" xmlns="http://www.w3.org/2000/svg">
<g opacity="1">
<path d="M26.3593 15.9103C25.3854 14.7626 24.9428 13.7681 24.9428 12.0785V11.504C24.9428 9.3022 24.4405 7.88357 23.3486 6.46495C21.6657 4.26181 18.8325 2.93396 16.059 2.93396H15.941C13.2258 2.93396 10.4814 4.20083 8.76932 6.31455C7.61776 7.76163 7.05722 9.24123 7.05722 11.504V12.0785C7.05722 13.7681 6.64378 14.7626 5.64064 15.9103C4.90253 16.7558 4.66666 17.8424 4.66666 19.0185C4.66666 20.196 5.04962 21.3111 5.81821 22.2175C6.82135 23.3042 8.23793 23.9979 9.68499 24.1185C11.7801 24.3597 13.8751 24.4505 16.0007 24.4505C18.1249 24.4505 20.2199 24.2987 22.3163 24.1185C23.762 23.9979 25.1786 23.3042 26.1818 22.2175C26.949 21.3111 27.3333 20.196 27.3333 19.0185C27.3333 17.8424 27.0974 16.7558 26.3593 15.9103" fill="#3E66FB"/>
<path opacity="1" d="M18.6783 26.1121C18.0117 25.9684 13.9502 25.9684 13.2836 26.1121C12.7138 26.2448 12.0976 26.5538 12.0976 27.2312C12.1307 27.8775 12.5057 28.448 13.0252 28.8097L13.0239 28.8111C13.6957 29.3395 14.4842 29.6756 15.3098 29.7961C15.7497 29.8571 16.1976 29.8544 16.6535 29.7961C17.4777 29.6756 18.2662 29.3395 18.938 28.8111L18.9367 28.8097C19.4561 28.448 19.8312 27.8775 19.8643 27.2312C19.8643 26.5538 19.2481 26.2448 18.6783 26.1121Z" fill="#3E66FB"/>
</g>
</svg>
