<svg width="32" height="33" viewBox="0 0 32 33" fill="none" xmlns="http://www.w3.org/2000/svg">
<path opacity="1" d="M28.3068 19.576C28.0479 19.1724 27.68 18.7688 27.203 18.5132C26.8215 18.3248 26.5762 18.0154 26.3582 17.6522C25.6633 16.4952 26.0721 14.9749 27.2303 14.2888C28.5929 13.5219 29.0289 11.8134 28.2386 10.4815L27.3257 8.89396C26.549 7.56207 24.8457 7.0912 23.4967 7.8715C22.2976 8.51726 20.7579 8.08675 20.063 6.94321C19.845 6.56651 19.7223 6.16291 19.7496 5.75931C19.7904 5.23462 19.6269 4.73684 19.3817 4.33324C18.8775 3.49913 17.9646 2.93408 16.9562 2.93408H15.0349C14.0402 2.96099 13.1273 3.49913 12.6231 4.33324C12.3642 4.73684 12.2143 5.23462 12.2416 5.75931C12.2688 6.16291 12.1462 6.56651 11.9282 6.94321C11.2333 8.08675 9.69351 8.51726 8.50804 7.8715C7.14543 7.0912 5.45579 7.56207 4.66548 8.89396L3.75253 10.4815C2.97584 11.8134 3.41188 13.5219 4.76086 14.2888C5.91908 14.9749 6.32786 16.4952 5.64656 17.6522C5.41491 18.0154 5.16964 18.3248 4.78811 18.5132C4.32483 18.7688 3.91604 19.1724 3.69803 19.576C3.19386 20.4101 3.22111 21.4595 3.72528 22.334L4.66548 23.9484C5.16964 24.8094 6.10985 25.3475 7.09092 25.3475C7.55421 25.3475 8.09926 25.213 8.53529 24.9439C8.87594 24.7152 9.28473 24.6345 9.73439 24.6345C11.0834 24.6345 12.2143 25.7511 12.2416 27.083C12.2416 28.6302 13.4952 29.841 15.0758 29.841H16.929C18.496 29.841 19.7496 28.6302 19.7496 27.083C19.7904 25.7511 20.9214 24.6345 22.2704 24.6345C22.7064 24.6345 23.1152 24.7152 23.4695 24.9439C23.9055 25.213 24.4369 25.3475 24.9139 25.3475C25.8813 25.3475 26.8215 24.8094 27.3257 23.9484L28.2795 22.334C28.77 21.4326 28.8109 20.4101 28.3068 19.576" fill="#3E66FB"/>
<path d="M16.0162 20.1949C13.8769 20.1949 12.1464 18.5132 12.1464 16.401C12.1464 14.2888 13.8769 12.5937 16.0162 12.5937C18.1555 12.5937 19.8451 14.2888 19.8451 16.401C19.8451 18.5132 18.1555 20.1949 16.0162 20.1949Z" fill="white"/>
</svg>
